<?xml version="1.0" encoding="UTF-8" standalone="no"?>
<!-- Generator: Adobe Illustrator 14.0.0, SVG Export Plug-In . SVG Version: 6.00 Build 43363)  -->

<svg
   xmlns:dc="http://purl.org/dc/elements/1.1/"
   xmlns:cc="http://creativecommons.org/ns#"
   xmlns:rdf="http://www.w3.org/1999/02/22-rdf-syntax-ns#"
   xmlns:svg="http://www.w3.org/2000/svg"
   xmlns="http://www.w3.org/2000/svg"
   xmlns:sodipodi="http://sodipodi.sourceforge.net/DTD/sodipodi-0.dtd"
   xmlns:inkscape="http://www.inkscape.org/namespaces/inkscape"
   version="1.0"
   id="Layer_1"
   x="0px"
   y="0px"
   width="650"
   height="650"
   viewBox="0 0 649.99996 650.00004"
   enable-background="new 0 0 100 88.379"
   xml:space="preserve"
   inkscape:version="0.48.4 r9939"
   sodipodi:docname="reactor-logo-colour-fixed-ovals.svg"><metadata
   id="metadata3005"><rdf:RDF><cc:Work
       rdf:about=""><dc:format>image/svg+xml</dc:format><dc:type
         rdf:resource="http://purl.org/dc/dcmitype/StillImage" /><dc:title></dc:title></cc:Work></rdf:RDF></metadata><defs
   id="defs3003" /><sodipodi:namedview
   pagecolor="#ffffff"
   bordercolor="#666666"
   borderopacity="1"
   objecttolerance="10"
   gridtolerance="10"
   guidetolerance="10"
   inkscape:pageopacity="0"
   inkscape:pageshadow="2"
   inkscape:window-width="1600"
   inkscape:window-height="847"
   id="namedview3001"
   showgrid="false"
   inkscape:zoom="0.74199781"
   inkscape:cx="245.55443"
   inkscape:cy="220.62623"
   inkscape:window-x="-8"
   inkscape:window-y="-8"
   inkscape:window-maximized="1"
   inkscape:current-layer="Layer_1"
   fit-margin-top="3"
   fit-margin-left="3"
   fit-margin-right="3"
   fit-margin-bottom="3"
   inkscape:snap-grids="true"><inkscape:grid
     type="xygrid"
     id="grid3026"
     empspacing="4"
     visible="true"
     enabled="true"
     snapvisiblegridlinesonly="true"
     originx="-258.83442px"
     originy="-156.72527px" /></sodipodi:namedview>


<path
   id="path3017-4"
   d="m 365.67222,243.64814 9.25058,-11.99907 c 1.75064,-2.28212 2.06715,-5.3816 0.81394,-7.97103 -0.85271,-1.77209 -2.34493,-3.08641 -4.11497,-3.75341 l -8.68208,-8.40914 -1.64082,-1.59552 v -7.33024 -9.38345 h -23.17808 v -56.3989 h 0.0453 l 3.947,-2.64827 v -6.61096 h -7.248 V 88.752282 h -2.33847 v -19.04812 h -3.14598 v -31.2041 -0.3989 -32.4988301 h -7.37074 v 32.4922601 0.39892 31.2041 h -3.15242 v 19.04812 H 316.519 v 38.795898 h -7.08005 v 6.57822 l 3.96637,2.68101 h 0.0203 v 56.39888 h -23.20394 v 9.38347 7.23212 l -1.73123,1.68707 -8.61751,8.41568 c -1.76355,0.66698 -3.24933,1.98787 -4.10202,3.75996 -1.24676,2.60906 -0.92378,5.70854 0.84625,7.9841 l 9.23118,11.88793 v 0.10463 c 0,0.0595 0.008,0.11763 0.008,0.17666 -3.02969,1.92247 -5.04517,5.27697 -5.04517,9.10227 0,5.95704 4.87722,10.80244 10.87845,10.80244 h 20.43265 L 295.70091,647 h 57.77726 l -13.527,-383.26388 h 19.88354 c 5.99479,0 10.87846,-4.84539 10.87846,-10.80244 0,-3.8253 -2.02196,-7.1798 -5.03227,-9.10227 0,-0.0593 0,-0.11762 0,-0.17665 v -0.008 z"
   inkscape:connector-curvature="0"
   style="fill:#000000" /><path
   inkscape:connector-curvature="0"
   id="path3037"
   style="fill:#000000"
   d="m 352.3311,424.29237 c -0.082,-3.34575 -0.195,-6.63117 -0.25,-7.30095 -0.055,-0.66978 6.425,-4.74916 14.39999,-9.06529 34.4324,-18.63507 76.9752,-45.70231 107.7393,-68.5476 l 15.2392,-11.31659 -2.7392,-2.27501 c -18.4482,-15.32178 -63.134,-45.31126 -95.8324,-64.31486 -7.4496,-4.32952 -13.3875,-8.42629 -13.4259,-9.26287 -0.038,-0.825 -0.7103,-3.30001 -1.4944,-5.50001 -1.3122,-3.68156 -1.2751,-4.15084 0.4663,-5.89469 1.8568,-1.85934 2.1127,-1.76736 13.7196,4.92964 33.8342,19.52189 66.7785,41.0727 93.769,61.33984 14.487,10.87831 16.1178,11.84687 17.8751,10.61606 5.8592,-4.10396 31.13691,-27.24282 41.70701,-38.17797 33.4606,-34.61642 51.1545,-64.97 49.731,-85.31288 -1.4297,-20.43066 -19.412,-30.18537 -55.7546,-30.24466 -38.49421,-0.0628 -90.77351,12.39799 -150.33781,35.83307 -10.3608,4.07637 -19.0233,7.41159 -19.25,7.41159 -0.2267,0 -0.4122,-3.11831 -0.4122,-6.92959 l 0,-6.92959 15.75,-6.17679 c 67.8753,-26.61915 130.7677,-40.05327 168.75001,-36.04576 19.794,2.08847 32.4711,6.75478 42.2594,15.55524 13.844,12.44702 16.0675,32.6962 6.2139,56.59138 -11.1261,26.9809 -39.7351,61.21278 -80.9733,96.88764 -4.675,4.04431 -8.59681,7.41886 -8.71521,7.49899 -0.1184,0.0801 4.71961,4.37041 10.75111,9.53394 l 10.9665,9.38825 -3.4877,2.87482 c -1.9182,1.58115 -4.0586,3.68999 -4.7565,4.68632 -1.1632,1.66074 -2.2141,0.99173 -12.62741,-8.03857 -9.7488,-8.45405 -11.5953,-9.67619 -13.0285,-8.62317 -0.9185,0.67479 -7.0547,5.29716 -13.6361,10.27193 -35.2949,26.67884 -78.3529,53.92643 -120.7162,76.39058 l -11.74999,6.23072 -0.15,-6.08316 z m -155.08541,62.69421 c -0.2682,-2.90256 -0.6624,-5.89116 -0.8761,-6.64134 -0.2746,-0.96419 2.5081,-2.19859 9.494,-4.21148 22.569,-6.50292 51.1027,-16.7943 76.2233,-27.49182 8.3082,-3.538 15.2832,-6.43378 15.5,-6.43506 0.2168,-0.001 0.2499,3.26626 0.074,7.2612 l -0.3207,7.26353 -14.1793,5.86311 c -21.4634,8.87504 -47.3027,18.21195 -65.6793,23.73294 -9.075,2.72645 -17.2308,5.17748 -18.1239,5.44673 -1.3173,0.39711 -1.716,-0.50698 -2.1116,-4.78781 z m 318.75381,17.08989 c -38.66061,-3.7121 -91.40151,-18.50545 -146.51841,-41.09698 l -15.49999,-6.35321 -0.6893,-6.93583 c -0.3792,-3.81471 -0.5075,-7.11769 -0.2853,-7.33995 0.2223,-0.22226 7.7325,2.65185 16.68939,6.38692 51.3812,21.42623 95.1928,34.60996 134.7852,40.55938 18.96731,2.85015 46.80451,3.12029 58.00001,0.56285 20.5196,-4.68735 31.0295,-14.88977 30.9853,-30.07858 -0.054,-18.54187 -14.4686,-44.78211 -40.3546,-73.46172 l -4.8693,-5.39479 2.4463,-1.4843 c 1.3454,-0.81637 3.3116,-2.77603 4.3693,-4.35481 1.0577,-1.57877 2.2201,-2.87179 2.5831,-2.87337 0.8511,-0.004 11.8982,12.48475 19.016,21.49712 13.4499,17.02993 23.1344,34.52078 27.4564,49.58803 3.4448,12.00904 3.1379,24.44675 -0.8151,33.03199 -5.2243,11.34632 -14.8746,19.18278 -29.3174,23.807 -14.9997,4.80255 -34.91,6.1556 -57.9816,3.94029 z m -420.921432,0.0659 c -22.2055,-3.08077 -37.4233,-11.24876 -44.9793,-24.14212 -12.606699,-21.51177 -1.6704,-54.63371 30.9682,-93.79105 10.5268,-12.62927 36.455912,-38.45016 49.707412,-49.5 5.2767,-4.4 9.6193,-8.31284 9.6503,-8.69519 0.031,-0.38235 -4.5561,-4.6309 -10.1936,-9.44121 -14.0067,-11.95155 -42.595112,-40.80418 -51.883912,-52.3636 -35.3127,-43.94441 -42.802999,-78.63739 -21.3572,-98.91998 22.1584,-20.95652 69.267712,-22.30812 139.491122,-4.0021 18.5508,4.83585 54.3048,16.70947 73,24.24273 l 13.5,5.43982 0.2964,7.24453 c 0.2298,5.61817 0.01,7.12916 -1,6.73065 -0.713,-0.28263 -8.2714,-3.31172 -16.7964,-6.73133 -62.4247,-25.0402 -126.49491,-39.21435 -162.94932,-36.04899 -20.903702,1.81509 -34.415902,7.66786 -40.550702,17.56444 -2.8515,4.60003 -2.9973,5.36274 -2.947,15.40989 0.047,9.45109 0.387,11.40867 3.208,18.48775 4.2579,10.68484 13.9579,26.53604 24.1341,39.43846 9.7603,12.37518 41.203512,44.12931 55.410212,55.9582 l 9.8052,8.16411 11.6948,-8.78972 c 34.07011,-25.60691 66.66981,-46.861 104.53941,-68.15685 5.8427,-3.28563 5.8453,-3.28606 7.8427,-1.28872 1.8817,1.88167 1.9053,2.17732 0.4053,5.07789 -0.876,1.69394 -1.5927,4.17909 -1.5927,5.52257 0,1.39045 -0.7431,2.72784 -1.7251,3.10467 -4.0525,1.55509 -42.035,24.84159 -59.6414,36.56522 -15.1678,10.09984 -37.9911,26.49252 -49.54161,35.58294 -1.1264,0.88656 1.77411,3.48779 14.50251,13.00601 28.5875,21.37752 65.6961,45.13109 101.4056,64.91069 10.725,5.94061 19.5942,10.8621 19.7092,10.93666 0.1151,0.0745 -0.057,3.30636 -0.3815,7.1818 l -0.5907,7.04627 -17.6185,-9.49443 c -41.2182,-22.2121 -84.9897,-50.3304 -118.82611,-76.33263 l -10.2077,-7.84427 -11.2923,9.64917 c -6.2108,5.30705 -18.7307,17.11814 -27.822,26.24686 -23.250112,23.3458 -37.131512,41.11783 -45.875412,58.73303 -5.8375,11.76001 -7.3466,16.94559 -7.8182,26.86467 -0.3971,8.35098 -0.2242,9.3966 2.3976,14.49972 8.8834,17.29042 38.861202,23.57101 83.325612,17.45738 5.775,-0.79404 11.7375,-1.70747 13.25,-2.02985 2.4477,-0.52171 2.75,-0.29901 2.75,2.02541 0,1.43637 0.6809,4.24122 1.5132,6.233 0.8322,1.99178 1.3458,3.78869 1.1414,3.99313 -0.2045,0.20444 -6.3979,1.27961 -13.76311,2.38928 -15.36959,2.31562 -43.96669,3.29797 -54.294502,1.86509 z" />























<path
   inkscape:connector-curvature="0"
   id="path3925"
   style="font-size:40px;font-style:normal;font-variant:normal;font-weight:normal;font-stretch:normal;text-align:start;line-height:125%;letter-spacing:0px;word-spacing:0px;writing-mode:lr-tb;text-anchor:start;fill:#ff2a2a;fill-opacity:1;stroke:none;font-family:Montserrat;-inkscape-font-specification:Montserrat"
   d="m 165.30642,502.1296 c -3.70101,-3.79035 -5.55148,-8.35479 -5.55148,-13.69337 0,-5.33853 1.8518,-9.85959 5.55543,-13.56323 3.70358,-3.70358 8.22465,-5.55537 13.56325,-5.55542 5.3385,5e-5 9.90294,1.85184 13.69335,5.55542 3.79031,3.70364 5.68547,8.2247 5.68551,13.56323 -4e-5,5.33858 -1.8952,9.90302 -5.68551,13.69337 -3.79041,3.79036 -8.35485,5.68552 -13.69335,5.68552 -5.3386,0 -9.86099,-1.89516 -13.5672,-5.68552 z" /><path
   inkscape:connector-curvature="0"
   id="path3929"
   style="font-size:40px;font-style:normal;font-variant:normal;font-weight:normal;font-stretch:normal;text-align:start;line-height:125%;letter-spacing:0px;word-spacing:0px;writing-mode:lr-tb;text-anchor:start;fill:#ff2a2a;fill-opacity:1;stroke:none;font-family:Montserrat;-inkscape-font-specification:Montserrat"
   d="m 526.40257,377.70954 c -3.701,-3.79033 -5.5515,-8.35479 -5.5515,-13.69335 0,-5.33852 1.8518,-9.85962 5.55545,-13.56325 3.70357,-3.70358 8.22464,-5.55537 13.56323,-5.55539 5.33852,2e-5 9.90296,1.85181 13.69337,5.55539 3.79027,3.70363 5.68546,8.22473 5.68554,13.56325 -8e-5,5.33856 -1.89527,9.90302 -5.68554,13.69335 -3.79041,3.79036 -8.35485,5.68552 -13.69337,5.68552 -5.33859,0 -9.86095,-1.89516 -13.56718,-5.68552 z" /></svg>