<?xml version="1.0" standalone="no"?>
<!DOCTYPE svg PUBLIC "-//W3C//DTD SVG 1.1//EN" "http://www.w3.org/Graphics/SVG/1.1/DTD/svg11.dtd" >
<svg>
<metadata>
Created by FontForge 20110222 at Tue Sep  9 08:07:11 2014
 By Orthosie Webhosting
Copyright
</metadata>
<defs>
<font id="CartoonistSimple" horiz-adv-x="1472" >
  <font-face 
    font-family="Cartoonist Simple"
    font-weight="400"
    font-stretch="normal"
    units-per-em="2048"
    panose-1="0 0 0 0 0 0 0 0 0 0"
    ascent="1638"
    descent="-410"
    cap-height="1512"
    bbox="-40 -469 1720 2183.52"
    underline-thickness="0"
    underline-position="0"
    unicode-range="U+0020-2018"
  />
<missing-glyph horiz-adv-x="0" 
 />
    <glyph glyph-name=".notdef" horiz-adv-x="0" 
 />
    <glyph glyph-name="E" unicode="E" horiz-adv-x="1384" 
d="M232 56l-40 96l-16 272l-24 104l-16 88l-88 80q-40 88 -24 152l48 48v152l-16 248l56 80l56 32h112l128 -8h88h80l80 16l88 16l104 16l80 16h184q208 -112 16 -240l-152 -32l-152 -8l-96 -16l-144 -32h-184l-64 -32l-16 -152l40 -144l96 -16l216 24h176l64 -24
q72 -80 -8 -152l-184 -40l-176 -16l-144 -16q0 -272 56 -256l136 -16l104 -16l152 -8l168 32q128 48 232 -24q96 -80 -8 -184l-48 -48l-144 -48l-264 16l-80 32l-96 16h-104l-128 -16l-104 -24z" />
    <glyph glyph-name="E" unicode="e" horiz-adv-x="1384" 
d="M232 56l-40 96l-16 272l-24 104l-16 88l-88 80q-40 88 -24 152l48 48v152l-16 248l56 80l56 32h112l128 -8h88h80l80 16l88 16l104 16l80 16h184q208 -112 16 -240l-152 -32l-152 -8l-96 -16l-144 -32h-184l-64 -32l-16 -152l40 -144l96 -16l216 24h176l64 -24
q72 -80 -8 -152l-184 -40l-176 -16l-144 -16q0 -272 56 -256l136 -16l104 -16l152 -8l168 32q128 48 232 -24q96 -80 -8 -184l-48 -48l-144 -48l-264 16l-80 32l-96 16h-104l-128 -16l-104 -24z" />
    <glyph glyph-name="X" unicode="X" horiz-adv-x="1776" 
d="M1720 88l-64 96l-72 64l-96 104l-96 120l-96 56l-88 56l-216 224l40 144l40 48l48 96l16 16l48 56l80 144l-8 120q-104 96 -216 8l-128 -136l-80 -192l-104 -80l56 8l-136 32l-128 144l-96 64l-80 56l-104 56l-176 40q-104 -120 16 -280l72 -80l72 -32l56 -32l48 -32
l40 -40l48 -32l152 -120l-16 -120l-32 -48l-32 -80l-56 -72l-48 -120l-56 -120v-144q56 -144 200 -8l80 88l88 176l72 88l72 96v16h56l72 -88l48 -16l32 -40l64 -24l64 -32l56 -48l48 -48l64 -56l24 -16l64 -64l64 -48l72 -40q152 -64 152 72z" />
    <glyph glyph-name="X" unicode="x" horiz-adv-x="1776" 
d="M1720 88l-64 96l-72 64l-96 104l-96 120l-96 56l-88 56l-216 224l40 144l40 48l48 96l16 16l48 56l80 144l-8 120q-104 96 -216 8l-128 -136l-80 -192l-104 -80l56 8l-136 32l-128 144l-96 64l-80 56l-104 56l-176 40q-104 -120 16 -280l72 -80l72 -32l56 -32l48 -32
l40 -40l48 -32l152 -120l-16 -120l-32 -48l-32 -80l-56 -72l-48 -120l-56 -120v-144q56 -144 200 -8l80 88l88 176l72 88l72 96v16h56l72 -88l48 -16l32 -40l64 -24l64 -32l56 -48l48 -48l64 -56l24 -16l64 -64l64 -48l72 -40q152 -64 152 72z" />
    <glyph glyph-name="A" unicode="A" 
d="M1368 48q72 72 -24 240l-104 168l-72 144l-80 128l-40 104l-192 408l-88 144q-96 240 -176 96l-56 -224l-112 -272l-56 -184l-72 -112h-192l-64 -56q-104 -136 -8 -208l184 -16l8 -88l-56 -168v-88q48 -56 96 -44t100 28t44 112l24 112l24 96l48 88l184 -8h240h72
l96 -256l64 -120l72 -56q72 -8 136 32zM584 736l32 128l64 224l64 -8l128 -312l-64 -64h-168z" />
    <glyph glyph-name="A" unicode="a" 
d="M1368 48q72 72 -24 240l-104 168l-72 144l-80 128l-40 104l-192 408l-88 144q-96 240 -176 96l-56 -224l-112 -272l-56 -184l-72 -112h-192l-64 -56q-104 -136 -8 -208l184 -16l8 -88l-56 -168v-88q48 -56 96 -44t100 28t44 112l24 112l24 96l48 88l184 -8h240h72
l96 -256l64 -120l72 -56q72 -8 136 32zM584 736l32 128l64 224l64 -8l128 -312l-64 -64h-168z" />
    <glyph glyph-name="C" unicode="C" horiz-adv-x="1424" 
d="M1304 128q32 104 -16 144q-112 112 -216 48l-96 -88l-96 -8l-264 8l-96 64h-32l-128 96l-64 112l-16 200l24 224l80 176l96 96l112 48h200l72 -24l72 -40l88 -40q104 -32 104 88l-72 80l-48 48l-200 112l-192 24l-160 -24l-96 -48l-120 -104l-88 -80l-64 -120l-40 -112
l-32 -88l-16 -88v-208v-128l24 -64l16 -48l24 -64l48 -80l40 -32l88 -88l128 -40l104 -32l112 -32l152 8l272 8l128 48q160 -16 168 48z" />
    <glyph glyph-name="C" unicode="c" horiz-adv-x="1424" 
d="M1304 128q32 104 -16 144q-112 112 -216 48l-96 -88l-96 -8l-264 8l-96 64h-32l-128 96l-64 112l-16 200l24 224l80 176l96 96l112 48h200l72 -24l72 -40l88 -40q104 -32 104 88l-72 80l-48 48l-200 112l-192 24l-160 -24l-96 -48l-120 -104l-88 -80l-64 -120l-40 -112
l-32 -88l-16 -88v-208v-128l24 -64l16 -48l24 -64l48 -80l40 -32l88 -88l128 -40l104 -32l112 -32l152 8l272 8l128 48q160 -16 168 48z" />
    <glyph glyph-name="T" unicode="T" horiz-adv-x="1624" 
d="M928 0q56 16 72 104l-16 160l-24 168l-16 256l-8 384q0 144 64 120l256 -24l192 8l104 48q56 72 4 140t-140 108l-144 16l-328 -24l-400 24l-176 -56l-152 -24l-176 8q-88 -104 80 -192l256 -40l288 16v-280l8 -128l16 -232l16 -136l24 -128l24 -120l48 -104l48 -64z" />
    <glyph glyph-name="T" unicode="t" horiz-adv-x="1624" 
d="M928 0q56 16 72 104l-16 160l-24 168l-16 256l-8 384q0 144 64 120l256 -24l192 8l104 48q56 72 4 140t-140 108l-144 16l-328 -24l-400 24l-176 -56l-152 -24l-176 8q-88 -104 80 -192l256 -40l288 16v-280l8 -128l16 -232l16 -136l24 -128l24 -120l48 -104l48 -64z" />
    <glyph glyph-name="L" unicode="L" horiz-adv-x="1088" 
d="M904 40q120 96 0 256l-168 24l-176 24h-248l-24 40v96v80v152v280v128v120v96l-16 128q-88 104 -216 -16l-16 -88l-16 -264v-168v-168l16 -288l16 -264q0 -120 104 -112h16l88 -8l200 -40l224 -48h128z" />
    <glyph glyph-name="L" unicode="l" horiz-adv-x="1088" 
d="M904 40q120 96 0 256l-168 24l-176 24h-248l-24 40v96v80v152v280v128v120v96l-16 128q-88 104 -216 -16l-16 -88l-16 -264v-168v-168l16 -288l16 -264q0 -120 104 -112h16l88 -8l200 -40l224 -48h128z" />
    <glyph glyph-name="space" unicode=" " horiz-adv-x="1248" 
 />
    <glyph glyph-name="space" unicode="&#xa0;" horiz-adv-x="1248" 
 />
    <glyph glyph-name="Y" unicode="Y" horiz-adv-x="1216" 
d="M999 211l32 153l8 396v97v121v235v137l-8 105q-139 137 -204 -8l-25 -24l-2 -183l-8 -192l-39 -142l-82 -81l-188 -65l-189 57l-41 186v226l-33 129q-106 105 -163 0l-33 -105v-145l8 -196l33 -136l49 -121l82 -73l180 -48l213 8l123 40l74 81l24 -73l-16 -129l-49 -113
l-123 -73l-148 -8l-196 -16l-139 -32q-131 -81 8 -170l123 -16l155 -25l139 9l107 16l98 24l82 24l33 49q65 32 115 81z" />
    <glyph glyph-name="Y" unicode="y" horiz-adv-x="1216" 
d="M999 211l32 153l8 396v97v121v235v137l-8 105q-139 137 -204 -8l-25 -24l-2 -183l-8 -192l-39 -142l-82 -81l-188 -65l-189 57l-41 186v226l-33 129q-106 105 -163 0l-33 -105v-145l8 -196l33 -136l49 -121l82 -73l180 -48l213 8l123 40l74 81l24 -73l-16 -129l-49 -113
l-123 -73l-148 -8l-196 -16l-139 -32q-131 -81 8 -170l123 -16l155 -25l139 9l107 16l98 24l82 24l33 49q65 32 115 81z" />
    <glyph glyph-name="W" unicode="W" horiz-adv-x="1744" 
d="M1648 1504q-72 80 -152 0l-56 -184l-72 -296l-40 -160l-48 -128l-32 -160q-80 -112 -112 8l-72 120l-88 216l-72 216q-120 96 -200 -40l-80 -200l-48 -128l-72 -192l-32 -32l-40 40l-32 152l-80 224l-48 176l-32 128l-48 72q-96 88 -152 40l-32 -80l48 -152l80 -256
l176 -520l80 -320q56 -64 144 48l32 104l128 304l64 208l64 48l48 -8l112 -328l72 -176l104 -232q80 -8 128 120l64 160l56 168l40 128l24 120l40 160l48 152z" />
    <glyph glyph-name="W" unicode="w" horiz-adv-x="1744" 
d="M1648 1504q-72 80 -152 0l-56 -184l-72 -296l-40 -160l-48 -128l-32 -160q-80 -112 -112 8l-72 120l-88 216l-72 216q-120 96 -200 -40l-80 -200l-48 -128l-72 -192l-32 -32l-40 40l-32 152l-80 224l-48 176l-32 128l-48 72q-96 88 -152 40l-32 -80l48 -152l80 -256
l176 -520l80 -320q56 -64 144 48l32 104l128 304l64 208l64 48l48 -8l112 -328l72 -176l104 -232q80 -8 128 120l64 160l56 168l40 128l24 120l40 160l48 152z" />
    <glyph glyph-name="S" unicode="S" horiz-adv-x="1168" 
d="M1023 414l-57 112l-74 90l-104 40l-58 40l-178 16l-120 16l-56 32l-52 50l-32 40l-24 90v88l56 80l56 74l98 48l42 16l178 -8l74 -40l48 -90q48 -56 114 -32q89 58 0 170l-130 146l-122 80l-82 17h-98l-178 -41l-170 -120l-58 -50l-56 -112l-24 -170l24 -162l80 -122
l90 -80l114 -40l124 -32l136 -26l114 -24l122 -88l-8 -122l-90 -48l-98 -32l-130 -16l-154 40l-122 56q-178 98 -210 16l16 -96l40 -50l24 -8l130 -56l166 -58l176 -24l194 2l122 40l82 72l48 82z" />
    <glyph glyph-name="S" unicode="s" horiz-adv-x="1168" 
d="M1023 414l-57 112l-74 90l-104 40l-58 40l-178 16l-120 16l-56 32l-52 50l-32 40l-24 90v88l56 80l56 74l98 48l42 16l178 -8l74 -40l48 -90q48 -56 114 -32q89 58 0 170l-130 146l-122 80l-82 17h-98l-178 -41l-170 -120l-58 -50l-56 -112l-24 -170l24 -162l80 -122
l90 -80l114 -40l124 -32l136 -26l114 -24l122 -88l-8 -122l-90 -48l-98 -32l-130 -16l-154 40l-122 56q-178 98 -210 16l16 -96l40 -50l24 -8l130 -56l166 -58l176 -24l194 2l122 40l82 72l48 82z" />
    <glyph glyph-name="O" unicode="O" horiz-adv-x="1360" 
d="M1168 496q104 168 40 376l-112 304q-128 168 -296 272q-240 176 -448 32l-128 -88l-64 -96l-56 -160q-128 -552 48 -888q72 -152 208 -192q144 -48 296 8l184 56l144 88l120 152zM280 584q-56 144 16 472q72 160 144 200l96 48q72 32 104 0l80 -24l64 -56l88 -96l80 -112
l40 -104q40 -152 16 -248l-88 -176l-152 -144q-192 -112 -336 -64q-72 64 -144 224z" />
    <glyph glyph-name="O" unicode="o" horiz-adv-x="1360" 
d="M1168 496q104 168 40 376l-112 304q-128 168 -296 272q-240 176 -448 32l-128 -88l-64 -96l-56 -160q-128 -552 48 -888q72 -152 208 -192q144 -48 296 8l184 56l144 88l120 152zM280 584q-56 144 16 472q72 160 144 200l96 48q72 32 104 0l80 -24l64 -56l88 -96l80 -112
l40 -104q40 -152 16 -248l-88 -176l-152 -144q-192 -112 -336 -64q-72 64 -144 224z" />
    <glyph glyph-name="G" unicode="G" horiz-adv-x="1648" 
d="M1504 608v144l-48 56l-248 24l-488 8q-64 -104 -8 -192l96 -48l168 -16l224 -16l-8 -80l-56 -64l-104 -80l-168 -72l-280 -16l-168 72l-88 168l-24 184l32 216l144 200l208 112h208l80 -48h184q136 136 8 248l-72 40q-336 88 -512 0l-288 -160l-112 -120l-72 -104
l-56 -136q-80 -232 0 -512l104 -168l136 -120l176 -80q312 -56 456 8l120 40l120 56l96 72l80 104l64 64l48 96z" />
    <glyph glyph-name="G" unicode="g" horiz-adv-x="1648" 
d="M1504 608v144l-48 56l-248 24l-488 8q-64 -104 -8 -192l96 -48l168 -16l224 -16l-8 -80l-56 -64l-104 -80l-168 -72l-280 -16l-168 72l-88 168l-24 184l32 216l144 200l208 112h208l80 -48h184q136 136 8 248l-72 40q-336 88 -512 0l-288 -160l-112 -120l-72 -104
l-56 -136q-80 -232 0 -512l104 -168l136 -120l176 -80q312 -56 456 8l120 40l120 56l96 72l80 104l64 64l48 96z" />
    <glyph glyph-name="B" unicode="B" horiz-adv-x="1576" 
d="M1432 416l8 160l-48 112l-80 72q-112 56 -104 208q136 208 24 320l-80 40l-152 64l-288 56l-360 32l-192 16q-200 -80 -136 -224l120 -40l160 -8l40 -592l48 -624l256 40l240 48l240 64l168 80l104 104zM528 896l-24 312l144 48l168 -8l144 -40q128 -112 0 -192l-128 -80
l-128 -24zM688 216l-80 40q-72 96 -64 248q32 144 112 136l80 24l144 24q152 24 256 -56t80 -168l-88 -72l-128 -72l-96 -40l-128 -48z" />
    <glyph glyph-name="B" unicode="b" horiz-adv-x="1576" 
d="M1432 416l8 160l-48 112l-80 72q-112 56 -104 208q136 208 24 320l-80 40l-152 64l-288 56l-360 32l-192 16q-200 -80 -136 -224l120 -40l160 -8l40 -592l48 -624l256 40l240 48l240 64l168 80l104 104zM528 896l-24 312l144 48l168 -8l144 -40q128 -112 0 -192l-128 -80
l-128 -24zM688 216l-80 40q-72 96 -64 248q32 144 112 136l80 24l144 24q152 24 256 -56t80 -168l-88 -72l-128 -72l-96 -40l-128 -48z" />
    <glyph glyph-name="D" unicode="D" horiz-adv-x="1400" 
d="M1272 640v176l-32 216l-80 168l-88 96l-88 88l-152 80l-272 40h-144l-112 -16l-96 -16l-184 -88q-8 -128 112 -160l104 -32l112 -32l32 -88l16 -840q-40 -48 -80 8l-144 32q-96 -80 -48 -176l112 -64l120 -16l208 24l224 48l264 120l120 152l56 112zM584 240v936
q72 56 176 0l112 -40l104 -88l72 -104l40 -96v-120l-24 -144l-88 -112l-80 -104l-96 -64l-80 -48l-72 -16h-64z" />
    <glyph glyph-name="D" unicode="d" horiz-adv-x="1400" 
d="M1272 640v176l-32 216l-80 168l-88 96l-88 88l-152 80l-272 40h-144l-112 -16l-96 -16l-184 -88q-8 -128 112 -160l104 -32l112 -32l32 -88l16 -840q-40 -48 -80 8l-144 32q-96 -80 -48 -176l112 -64l120 -16l208 24l224 48l264 120l120 152l56 112zM584 240v936
q72 56 176 0l112 -40l104 -88l72 -104l40 -96v-120l-24 -144l-88 -112l-80 -104l-96 -64l-80 -48l-72 -16h-64z" />
    <glyph glyph-name="Q" unicode="Q" horiz-adv-x="1424" 
d="M1272 512v232l-34 218l-65 156l-99 123l-123 107l-90 66l-99 50l-139 33l-205 -33l-189 -124l-148 -197l-57 -255v-224l54 -190l52 -121l66 -93l98 -125l128 -71q153 -90 361 0l111 42l105 -113l63 -170q135 -63 172 9q45 107 -73 223l-54 51l-36 109l28 19l53 35l64 91z
M247 631l-15 176l31 207l72 134l124 101l148 24h119l120 -66l104 -100l89 -116l49 -175l8 -144l-16 -152l-41 -86l-55 -34l-48 -24l-57 91q-200 47 -172 -55l43 -70l40 -67l-64 -33l-87 -17l-101 23l-102 47l-69 63l-81 126z" />
    <glyph glyph-name="Q" unicode="q" horiz-adv-x="1424" 
d="M1272 512v232l-34 218l-65 156l-99 123l-123 107l-90 66l-99 50l-139 33l-205 -33l-189 -124l-148 -197l-57 -255v-224l54 -190l52 -121l66 -93l98 -125l128 -71q153 -90 361 0l111 42l105 -113l63 -170q135 -63 172 9q45 107 -73 223l-54 51l-36 109l28 19l53 35l64 91z
M247 631l-15 176l31 207l72 134l124 101l148 24h119l120 -66l104 -100l89 -116l49 -175l8 -144l-16 -152l-41 -86l-55 -34l-48 -24l-57 91q-200 47 -172 -55l43 -70l40 -67l-64 -33l-87 -17l-101 23l-102 47l-69 63l-81 126z" />
    <glyph glyph-name="Z" unicode="Z" horiz-adv-x="1648" 
d="M1496 72l8 80l-32 72l-80 64l-96 24h-128l-168 -16l-168 -16l-144 -16l-224 -16l-144 16v80l136 120l336 248l344 256l112 96l64 72l8 176l-72 88l-104 24l-128 8h-104h-144l-320 -8h-304l-64 -40q-88 -128 16 -160l448 -24l288 -8q160 -32 24 -112l-152 -128l-160 -136
l-208 -176l-136 -136l-120 -128q-128 -248 -24 -296l584 -40l600 -40h144l64 24z" />
    <glyph glyph-name="Z" unicode="z" horiz-adv-x="1648" 
d="M1496 72l8 80l-32 72l-80 64l-96 24h-128l-168 -16l-168 -16l-144 -16l-224 -16l-144 16v80l136 120l336 248l344 256l112 96l64 72l8 176l-72 88l-104 24l-128 8h-104h-144l-320 -8h-304l-64 -40q-88 -128 16 -160l448 -24l288 -8q160 -32 24 -112l-152 -128l-160 -136
l-208 -176l-136 -136l-120 -128q-128 -248 -24 -296l584 -40l600 -40h144l64 24z" />
    <glyph glyph-name="F" unicode="F" horiz-adv-x="1344" 
d="M248 96l-8 392l152 40h176l200 24l88 56l16 56l-16 64l-152 64q-176 24 -320 -32h-136v120l16 96l16 128l64 64l368 8l304 16l120 40q88 80 72 176l-40 48l-64 24l-328 8l-208 -16h-256q-168 80 -264 24l-32 -56v-128l8 -312l8 -440v-464q64 -152 160 -64z" />
    <glyph glyph-name="F" unicode="f" horiz-adv-x="1344" 
d="M248 96l-8 392l152 40h176l200 24l88 56l16 56l-16 64l-152 64q-176 24 -320 -32h-136v120l16 96l16 128l64 64l368 8l304 16l120 40q88 80 72 176l-40 48l-64 24l-328 8l-208 -16h-256q-168 80 -264 24l-32 -56v-128l8 -312l8 -440v-464q64 -152 160 -64z" />
    <glyph glyph-name="R" unicode="R" horiz-adv-x="1312" 
d="M1224 96v40v72l-80 112l-104 104l-160 120l-104 80v48l128 48l80 80l120 120q56 120 0 312l-40 72l-200 160l-224 48h-272l-280 -120l-64 -64l64 -88h72l24 16l24 -56v-264l-32 -176q-72 -96 -16 -152l40 -48l40 -32l40 -280q96 -200 200 -56l24 80v80l-32 72l8 56l64 32
l88 -64l48 -64l112 -96l120 -72l120 -120l48 -80q64 -64 144 80zM424 880l-8 64v64l8 72l24 104l32 128l56 24l168 -16l152 -88l24 -56l-8 -72l-64 -112l-96 -88l-88 -32l-48 -32l-80 -8l-32 16z" />
    <glyph glyph-name="R" unicode="r" horiz-adv-x="1312" 
d="M1224 96v40v72l-80 112l-104 104l-160 120l-104 80v48l128 48l80 80l120 120q56 120 0 312l-40 72l-200 160l-224 48h-272l-280 -120l-64 -64l64 -88h72l24 16l24 -56v-264l-32 -176q-72 -96 -16 -152l40 -48l40 -32l40 -280q96 -200 200 -56l24 80v80l-32 72l8 56l64 32
l88 -64l48 -64l112 -96l120 -72l120 -120l48 -80q64 -64 144 80zM424 880l-8 64v64l8 72l24 104l32 128l56 24l168 -16l152 -88l24 -56l-8 -72l-64 -112l-96 -88l-88 -32l-48 -32l-80 -8l-32 16z" />
    <glyph glyph-name="I" unicode="I" horiz-adv-x="544" 
d="M280 48l32 56l-16 112l-8 168l24 248l32 248l8 104v328l-80 152l-40 40l-112 8l-24 -88l-8 -160l-32 -408l-16 -184l-8 -416q8 -168 88 -240q112 -48 192 88z" />
    <glyph glyph-name="I" unicode="i" horiz-adv-x="544" 
d="M280 48l32 56l-16 112l-8 168l24 248l32 248l8 104v328l-80 152l-40 40l-112 8l-24 -88l-8 -160l-32 -408l-16 -184l-8 -416q8 -168 88 -240q112 -48 192 88z" />
    <glyph glyph-name="P" unicode="P" horiz-adv-x="1136" 
d="M344 8l40 48l48 48q40 88 8 168l-8 88l-32 88v184l80 32l112 8l120 48l120 72l112 120l32 88q40 104 0 240l-32 64l-120 120l-64 40l-88 40q-192 56 -440 0l-112 -32l-40 -40q-72 -136 80 -856l16 -168l24 -112l8 -200l80 -80zM336 920l-24 80l-8 176v160l56 16l112 16
l80 -16l80 -40l80 -40q56 -144 0 -232l-120 -120l-88 -16l-136 -32z" />
    <glyph glyph-name="P" unicode="p" horiz-adv-x="1136" 
d="M344 8l40 48l48 48q40 88 8 168l-8 88l-32 88v184l80 32l112 8l120 48l120 72l112 120l32 88q40 104 0 240l-32 64l-120 120l-64 40l-88 40q-192 56 -440 0l-112 -32l-40 -40q-72 -136 80 -856l16 -168l24 -112l8 -200l80 -80zM336 920l-24 80l-8 176v160l56 16l112 16
l80 -16l80 -40l80 -40q56 -144 0 -232l-120 -120l-88 -16l-136 -32z" />
    <glyph glyph-name="M" unicode="M" horiz-adv-x="1816" 
d="M1632 152l-8 232l-24 616l-8 240l-40 80l-120 120l-80 48l-96 -40l-120 -136l-144 -192l-88 -176l-56 -56l-56 8l-88 96l-200 216l-48 24l-176 144q-64 96 -152 32l-72 -104l-16 -352l24 -736q8 -136 96 -180t128 60l24 176v720q-72 104 120 8l112 -152l96 -136l88 -136
l64 -80q104 -48 160 24l96 136l56 88l96 176q80 96 96 -80l8 -216l8 -232l24 -192l40 -112q96 -176 248 -24z" />
    <glyph glyph-name="M" unicode="m" horiz-adv-x="1816" 
d="M1632 152l-8 232l-24 616l-8 240l-40 80l-120 120l-80 48l-96 -40l-120 -136l-144 -192l-88 -176l-56 -56l-56 8l-88 96l-200 216l-48 24l-176 144q-64 96 -152 32l-72 -104l-16 -352l24 -736q8 -136 96 -180t128 60l24 176v720q-72 104 120 8l112 -152l96 -136l88 -136
l64 -80q104 -48 160 24l96 136l56 88l96 176q80 96 96 -80l8 -216l8 -232l24 -192l40 -112q96 -176 248 -24z" />
    <glyph glyph-name="J" unicode="J" horiz-adv-x="1088" 
d="M752 152l112 144l40 224l32 320v224l-24 304l-48 128q-56 32 -160 -32l16 -416l-24 -456l-104 -256q-200 -128 -240 -64l-40 40l-80 120q-104 96 -200 -8q-56 -120 16 -240l56 -56l72 -64l104 -48h144l176 48z" />
    <glyph glyph-name="J" unicode="j" horiz-adv-x="1088" 
d="M752 152l112 144l40 224l32 320v224l-24 304l-48 128q-56 32 -160 -32l16 -416l-24 -456l-104 -256q-200 -128 -240 -64l-40 40l-80 120q-104 96 -200 -8q-56 -120 16 -240l56 -56l72 -64l104 -48h144l176 48z" />
    <glyph glyph-name="N" unicode="N" horiz-adv-x="1440" 
d="M1176 56l32 88l16 160l8 248v288l-16 272l-32 184l-40 112q-176 120 -200 16l-16 -152l64 -256l24 -160q56 -472 -56 -384l-176 136l-64 104l-184 160l-104 120l-56 80l-80 64l-64 176q-96 144 -192 40l-32 -64l8 -304l8 -288l8 -264l32 -232q48 -216 136 -144l40 48
l16 168v440q32 120 96 8l80 -56l56 -64l104 -120l312 -272l200 -192z" />
    <glyph glyph-name="N" unicode="n" horiz-adv-x="1440" 
d="M1176 56l32 88l16 160l8 248v288l-16 272l-32 184l-40 112q-176 120 -200 16l-16 -152l64 -256l24 -160q56 -472 -56 -384l-176 136l-64 104l-184 160l-104 120l-56 80l-80 64l-64 176q-96 144 -192 40l-32 -64l8 -304l8 -288l8 -264l32 -232q48 -216 136 -144l40 48
l16 168v440q32 120 96 8l80 -56l56 -64l104 -120l312 -272l200 -192z" />
    <glyph glyph-name="U" unicode="U" horiz-adv-x="1400" 
d="M1104 320l40 136l40 208l16 192l-40 296l-80 256l-48 40h-120l-32 -32l-16 -144l16 -96l24 -456l-16 -144l-32 -88l-72 -144l-104 -96l-104 -40q-72 -32 -136 0l-72 104l-32 136l-8 160l8 320l8 136l8 152l-48 184q-128 96 -176 24l-32 -64l-56 -224q-16 -392 0 -600
l40 -120l32 -120l40 -64l88 -144l144 -64q96 -40 344 40l184 64l112 80z" />
    <glyph glyph-name="U" unicode="u" horiz-adv-x="1400" 
d="M1104 320l40 136l40 208l16 192l-40 296l-80 256l-48 40h-120l-32 -32l-16 -144l16 -96l24 -456l-16 -144l-32 -88l-72 -144l-104 -96l-104 -40q-72 -32 -136 0l-72 104l-32 136l-8 160l8 320l8 136l8 152l-48 184q-128 96 -176 24l-32 -64l-56 -224q-16 -392 0 -600
l40 -120l32 -120l40 -64l88 -144l144 -64q96 -40 344 40l184 64l112 80z" />
    <glyph glyph-name="H" unicode="H" horiz-adv-x="1496" 
d="M1208 120l-16 112l-32 152v200l152 72q24 72 -16 152l-56 40l-88 8l-16 104l-8 232l-16 120q-24 152 -88 172t-104 -36l-24 -88l8 -432l-64 -64l-120 24l-152 8l-128 -8v128l8 192l-16 160q-32 144 -176 64l-32 -216l-8 -184l-32 -104l-120 -48q-80 -192 32 -216l72 -24
l16 -64l-16 -168l8 -200l48 -144q32 -96 176 -16l40 136v112l-16 144v112l24 80l136 16l144 -16l152 -32l16 -48l24 -256l64 -208q96 -112 168 -56z" />
    <glyph glyph-name="H" unicode="h" horiz-adv-x="1496" 
d="M1208 120l-16 112l-32 152v200l152 72q24 72 -16 152l-56 40l-88 8l-16 104l-8 232l-16 120q-24 152 -88 172t-104 -36l-24 -88l8 -432l-64 -64l-120 24l-152 8l-128 -8v128l8 192l-16 160q-32 144 -176 64l-32 -216l-8 -184l-32 -104l-120 -48q-80 -192 32 -216l72 -24
l16 -64l-16 -168l8 -200l48 -144q32 -96 176 -16l40 136v112l-16 144v112l24 80l136 16l144 -16l152 -32l16 -48l24 -256l64 -208q96 -112 168 -56z" />
    <glyph glyph-name="K" unicode="K" horiz-adv-x="1520" 
d="M1384 152q16 80 -56 144l-232 112l-136 80l-152 80l-128 80l-72 32q-96 24 -64 64l64 40l192 184l88 48l264 264q-48 152 -104 168q-72 24 -144 0l-168 -120l-40 -72l-368 -360l-56 8l-24 384l-32 120q-80 48 -160 0q-72 -144 -24 -288l8 -232l16 -352l32 -240l32 -208
q64 -128 216 -8l-8 360l-16 96l48 24l88 -64l120 -88l168 -80l160 -72l80 -72l240 -88q160 -32 168 56z" />
    <glyph glyph-name="K" unicode="k" horiz-adv-x="1520" 
d="M1384 152q16 80 -56 144l-232 112l-136 80l-152 80l-128 80l-72 32q-96 24 -64 64l64 40l192 184l88 48l264 264q-48 152 -104 168q-72 24 -144 0l-168 -120l-40 -72l-368 -360l-56 8l-24 384l-32 120q-80 48 -160 0q-72 -144 -24 -288l8 -232l16 -352l32 -240l32 -208
q64 -128 216 -8l-8 360l-16 96l48 24l88 -64l120 -88l168 -80l160 -72l80 -72l240 -88q160 -32 168 56z" />
    <glyph glyph-name="V" unicode="V" horiz-adv-x="1520" 
d="M592 8l88 72l64 56l56 96l56 88l72 136l80 216l88 168l160 448q56 112 0 164t-152 -4l-176 -336l-136 -312l-32 -56l-136 -304q-8 -80 -40 0l-40 40l-64 240l-88 264l-120 376l-80 136q-88 32 -176 -48l64 -256l120 -400l120 -384l120 -344q96 -128 152 -56z" />
    <glyph glyph-name="V" unicode="v" horiz-adv-x="1520" 
d="M592 8l88 72l64 56l56 96l56 88l72 136l80 216l88 168l160 448q56 112 0 164t-152 -4l-176 -336l-136 -312l-32 -56l-136 -304q-8 -80 -40 0l-40 40l-64 240l-88 264l-120 376l-80 136q-88 32 -176 -48l64 -256l120 -400l120 -384l120 -344q96 -128 152 -56z" />
    <glyph glyph-name="ampersand" unicode="&#x26;" horiz-adv-x="1136" 
d="M952 24q16 48 0 104l-80 80q-72 88 -48 136l72 88l56 88q16 80 0 128q-56 48 -152 -24l-56 -136q-96 -88 -184 0q-160 144 -96 208l112 96l96 144q48 216 0 352l-112 120l-88 88q-104 24 -200 -8l-64 -56l-56 -64l-40 -104q-56 -152 8 -336q136 -136 40 -200l-120 -344
l-8 -88l80 -168l128 -72q112 -32 272 40l136 64l32 -24l160 -128q72 -40 112 16zM312 1008q-56 80 0 224l80 72l80 -32q56 -120 8 -176l-40 -88l-56 -56l-56 16zM264 256q-56 88 8 208l96 24l104 -104q32 -40 8 -88l-48 -40q-96 -40 -120 -8z" />
    <glyph glyph-name="hyphen" unicode="-" horiz-adv-x="920" 
d="M796 680q19 32 0 80l-134 32l-198 24l-177 16h-192q-95 -96 -48 -152l87 -40q288 -24 633 0z" />
    <glyph glyph-name="comma" unicode="," horiz-adv-x="768" 
d="M584 -56q8 136 -8 232l-48 88l-24 24l-48 40l-80 40q-48 32 -200 -40l-24 -24q-24 -72 24 -160l72 -88l128 -24q32 -32 8 -56l-32 -32l-40 -8l-48 -40q-32 -48 -8 -112l48 -40h64l88 32l80 40z" />
    <glyph glyph-name="period" unicode="." horiz-adv-x="680" 
d="M237 386q99 54 155 2t60 -112t-20 -180l-56 -48l-64 -48l-80 8q-152 112 -72 312z" />
    <glyph glyph-name="parenright" unicode=")" horiz-adv-x="736" 
d="M280 8l160 120l32 40l80 200l40 160q24 176 0 312l-40 168l-80 160l-88 120l-120 120l-96 72q-72 24 -128 8q-64 -80 -8 -144l40 -32l88 -40l80 -80l168 -232l24 -152v-256l-88 -176l-144 -128l-120 -80q-40 -40 -8 -96l64 -56q72 -32 144 -8z" />
    <glyph glyph-name="parenleft" unicode="(" horiz-adv-x="725" 
d="M312 1480l-160 -120l-32 -40l-80 -200l-40 -160q-24 -176 0 -312l40 -168l80 -160l88 -120l120 -120l96 -72q72 -24 128 -8q64 80 8 144l-40 32l-88 40l-80 80l-168 232l-32 232l24 200l88 152l128 128l88 64q64 40 48 112l-48 64q-96 24 -168 0z" />
    <glyph glyph-name="glyph34" horiz-adv-x="936" 
 />
    <glyph glyph-name="quotedbl" unicode="&#x22;" horiz-adv-x="936" 
d="M672 960l32 80v200l-8 80l-24 104q-56 56 -120 8l-24 -144v-136l24 -80l32 -104q48 -40 88 -8zM272 944l24 88l-32 232l-32 176l-32 64q-56 24 -120 8l-32 -40l16 -184l32 -184l24 -176q72 -48 152 16z" />
    <glyph glyph-name="quotedbl" unicode="&#x201d;" horiz-adv-x="936" 
d="M672 960l32 80v200l-8 80l-24 104q-56 56 -120 8l-24 -144v-136l24 -80l32 -104q48 -40 88 -8zM272 944l24 88l-32 232l-32 176l-32 64q-56 24 -120 8l-32 -40l16 -184l32 -184l24 -176q72 -48 152 16z" />
    <glyph glyph-name="quotedbl" unicode="&#x201c;" horiz-adv-x="936" 
d="M672 960l32 80v200l-8 80l-24 104q-56 56 -120 8l-24 -144v-136l24 -80l32 -104q48 -40 88 -8zM272 944l24 88l-32 232l-32 176l-32 64q-56 24 -120 8l-32 -40l16 -184l32 -184l24 -176q72 -48 152 16z" />
    <glyph glyph-name="quotedbl" unicode="&#xbb;" horiz-adv-x="936" 
d="M672 960l32 80v200l-8 80l-24 104q-56 56 -120 8l-24 -144v-136l24 -80l32 -104q48 -40 88 -8zM272 944l24 88l-32 232l-32 176l-32 64q-56 24 -120 8l-32 -40l16 -184l32 -184l24 -176q72 -48 152 16z" />
    <glyph glyph-name="quotedbl" unicode="&#xab;" horiz-adv-x="936" 
d="M672 960l32 80v200l-8 80l-24 104q-56 56 -120 8l-24 -144v-136l24 -80l32 -104q48 -40 88 -8zM272 944l24 88l-32 232l-32 176l-32 64q-56 24 -120 8l-32 -40l16 -184l32 -184l24 -176q72 -48 152 16z" />
    <glyph glyph-name="quotesingle" unicode="'" horiz-adv-x="768" 
d="M576 1064q8 136 -8 232l-48 88l-24 24l-48 40l-80 40q-48 32 -200 -40l-24 -24q-24 -72 24 -160l72 -88l128 -24q32 -32 8 -56l-32 -32l-40 -8l-48 -40q-32 -48 -8 -112l48 -40h64l88 32l80 40z" />
    <glyph glyph-name="quotesingle" unicode="&#x2019;" horiz-adv-x="768" 
d="M576 1064q8 136 -8 232l-48 88l-24 24l-48 40l-80 40q-48 32 -200 -40l-24 -24q-24 -72 24 -160l72 -88l128 -24q32 -32 8 -56l-32 -32l-40 -8l-48 -40q-32 -48 -8 -112l48 -40h64l88 32l80 40z" />
    <glyph glyph-name="quoteleft" unicode="&#x2018;" horiz-adv-x="768" 
d="M128 1320q-8 -136 8 -232l48 -88l24 -24l48 -40l80 -40q48 -32 200 40l24 24q24 72 -24 160l-72 88l-128 24q-32 32 -8 56l32 32l40 8l48 40q32 48 8 112l-48 40h-64l-88 -32l-80 -40z" />
    <glyph glyph-name="colon" unicode=":" horiz-adv-x="680" 
d="M237 1154q99 54 155 2t60 -112t-20 -180l-56 -48l-64 -48l-80 8q-152 112 -72 312zM237 562q99 54 155 2t60 -112t-20 -180l-56 -48l-64 -48l-80 8q-152 112 -72 312z" />
    <glyph glyph-name="semicolon" unicode=";" horiz-adv-x="768" 
d="M584 120q8 136 -8 232l-48 88l-24 24l-48 40l-80 40q-48 32 -200 -40l-24 -24q-24 -72 24 -160l72 -88l128 -24q32 -32 8 -56l-32 -32l-40 -8l-48 -40q-32 -48 -8 -112l48 -40h64l88 32l80 40zM237 1154q99 54 155 2t60 -112t-20 -180l-56 -48l-64 -48l-80 8
q-152 112 -72 312z" />
    <glyph glyph-name="glyph40" horiz-adv-x="840" 
 />
    <glyph glyph-name="exclam" unicode="!" horiz-adv-x="656" 
d="M184 608q-16 224 8 344l24 168q-8 160 8 280l56 88q96 72 192 -16l-8 -64l-8 -160q8 -216 -16 -424l-16 -176l-40 -72l-40 -48q-56 -24 -112 -8zM112 88q-64 48 -8 176l80 56q88 32 152 8l88 -80q32 -88 0 -160l-64 -64q-104 -32 -184 8z" />
    <glyph glyph-name="glyph42" horiz-adv-x="1000" 
 />
    <glyph glyph-name="dollar" unicode="$" horiz-adv-x="1000" 
d="M504 16l40 48l8 200l112 32l72 32l88 80q40 120 0 264l-96 80l-136 16l-80 32v248l144 -8h128l8 104l-136 32l-64 24l-56 24l-32 24v248q-48 48 -120 -48l8 -176l-48 -32l-96 -8l-128 -120l-64 -128q-56 -168 16 -224l40 -80l80 -40l200 -40l-8 -176l-40 -16l-192 24
h-120q-72 -48 0 -152l200 -24l128 -16l40 -184l24 -40q64 -48 80 0zM536 480q-24 64 0 128l56 24l40 -16l32 -56l-56 -72zM232 840v64v88l72 64l80 -16l8 -104l-16 -136l-112 8z" />
    <glyph glyph-name="question" unicode="?" horiz-adv-x="1152" 
d="M592 544q24 56 0 104l-64 8l-96 16q-40 56 32 64l88 40l80 32l88 48l112 48l80 112q96 136 40 272l-40 80l-120 120l-208 32l-184 -24l-160 -80l-120 -40l-80 -88q-64 -56 0 -112l32 -40l56 -8l200 80l64 8l72 32l128 16l80 -32q112 8 40 -80l-104 -56l-88 -40l-40 -48
l-120 -32l-120 -120q-64 -168 -8 -280l80 -72q144 -48 280 40zM632 88q32 112 0 168l-32 72q-104 80 -168 0l-72 -48q-40 -104 -8 -184l104 -96q56 -8 120 16z" />
    <glyph glyph-name="percent" unicode="%" horiz-adv-x="1224" 
d="M400 1072q64 184 0 312l-80 120q-88 40 -168 16q-96 -64 -128 -184t24 -304l72 -88q96 -32 192 32zM152 1128q-48 88 -8 208q80 48 136 16l40 -80v-112l-40 -40q-64 -32 -128 8zM1040 136q56 144 0 280l-80 128q-104 64 -208 32q-80 -56 -116 -184t36 -304l72 -80
q96 -32 216 16zM784 176q-48 104 -8 216q56 56 120 8l40 -64v-112l-40 -48q-64 -24 -112 0zM152 88l64 64l40 48l144 192l152 208l192 256l72 104l96 88l112 160q32 88 8 152q-64 136 -160 8l-120 -112l-152 -216l-120 -200l-88 -104l-72 -96l-48 -112l-96 -128l-88 -176
q-104 -104 -44 -156t108 20z" />
    <glyph glyph-name="glyph46" horiz-adv-x="2048" 
 />
    <glyph glyph-name="slash" unicode="/" horiz-adv-x="1120" 
d="M135 -193l164 221l373 668l112 221l244 360q59 151 6 273q-65 115 -164 0l-348 -651l-92 -140l-197 -388l-98 -193l-111 -274v-79q58 -88 111 -18z" />
    <glyph glyph-name="backslash" unicode="\" horiz-adv-x="1120" 
d="M975 -193l-164 221l-373 668l-112 221l-244 360q-59 151 -6 273q65 115 164 0l348 -651l92 -140l197 -388l98 -193l111 -274v-79q-58 -88 -111 -18z" />
    <glyph glyph-name="one" unicode="1" horiz-adv-x="1016" 
d="M896 320h-296l8 176q16 400 -16 888q-48 152 -128 128l-104 -80l-152 -176l-152 -40q-80 -120 -16 -208l56 -48h80l240 152l24 -24v-632q-48 -56 -56 -128h-344q-56 -144 -8 -224l80 -56l88 -32h616l80 120v184z" />
    <glyph glyph-name="two" unicode="2" 
d="M1256 288l-40 40l-40 8h-392l208 248l64 96q128 328 48 512l-80 120l-56 72l-80 48l-64 40q-176 16 -384 0l-112 -72l-176 -120l-144 -160v-104q128 -72 304 0l88 32l88 80q152 88 304 0l64 -40q56 -80 24 -216l-104 -176l-112 -152l-112 -96l-256 -168q-40 -120 72 -200
l144 -64q240 -32 736 48q32 136 8 224z" />
    <glyph glyph-name="three" unicode="3" horiz-adv-x="1448" 
d="M1224 328q56 208 16 384l-64 112l-48 48l-80 32l-88 8q-48 48 8 120l48 72l72 64l64 48l64 64v96l-48 40l-56 40l-56 8h-352l-152 -8h-224l-96 -32l-40 -48q-32 -112 0 -192l24 -32q88 -48 168 -8l56 24q80 8 160 -8h136q-32 -96 -104 -192l-80 -56l-72 -48
q-48 -96 -16 -216q96 -40 184 -16l120 56l144 8q168 -72 88 -256l-120 -104q-128 -96 -296 -24l-128 40l-152 80l-48 32l-72 48q-64 32 -128 -24l-32 -112l248 -208q256 -168 464 -160l232 56l152 120z" />
    <glyph glyph-name="glyph52" horiz-adv-x="1416" 
 />
    <glyph glyph-name="four" unicode="4" horiz-adv-x="1376" 
d="M913 64q73 104 24 336l-16 152l24 16h253l41 40q32 72 0 168l-82 56h-260q40 216 0 432l-66 168q-65 48 -106 40l-114 -112l-89 -64l-163 -168l-123 -168l-97 -72l-98 -96q-65 -104 -8 -152l48 -40l196 -32h130h351v-304q-33 -104 0 -208q81 -96 155 8zM735 832h-70
q-125 -40 -249 8l257 312h62v-320z" />
    <glyph glyph-name="five" unicode="5" horiz-adv-x="1368" 
d="M45 143l107 -23h144l163 -64q163 -32 327 8l166 96l144 152q96 152 24 352l-56 120l-80 72l-89 58l-132 55l-172 24l-311 15l7 150h367l218 16l156 78q55 87 0 158l-132 70l-184 -8q-304 -56 -480 -15l-85 24h-71l-7 -56v-676q54 -56 155 -37l112 24q160 32 320 8
l152 -72l80 -96l-8 -112l-56 -80l-92 -45l-125 -31l-195 8q-156 63 -292 36l-104 -48q-64 -91 29 -161z" />
    <glyph glyph-name="greater" unicode="&#x3e;" horiz-adv-x="1280" 
d="M73 336h152l135 80l140 56l128 72l197 104l135 104l82 64q76 128 13 232l-268 128l-153 40l-96 56l-96 40l-268 80l-101 40q-89 -88 -7 -152l134 -88l96 -40l204 -80l172 -64l128 -56q152 -48 -88 -128l-128 -64l-116 -56l-179 -112l-147 -72l-69 -64q-45 -72 0 -120z
" />
    <glyph glyph-name="numbersign" unicode="#" horiz-adv-x="1704" 
d="M772 -19l104 181l246 578l58 146l164 316q39 122 4 225q-42 96 -106 0l-222 -541l-59 -117l-125 -321l-64 -161l-68 -226v-66q35 -75 68 -14zM283 -6l103 175l243 555l57 139l163 303q38 118 3 217q-41 91 -104 0l-220 -520l-58 -112l-123 -308l-64 -155l-67 -216v-64
q35 -72 67 -14zM1400 456q35 25 0 59l-246 25l-487 17l-192 12h-348q-167 -70 -86 -113l156 -29q522 -19 1089 0zM1489 832q34 24 0 60l-237 23l-472 18l-185 12h-336q-163 -71 -84 -113l151 -29q505 -19 1053 0z" />
    <glyph glyph-name="less" unicode="&#x3c;" horiz-adv-x="1280" 
d="M1029 336h-152l-135 80l-140 56l-128 72l-197 104l-135 104l-82 64q-76 128 -13 232l268 128l153 40l96 56l96 40l268 80l101 40q89 -88 7 -152l-134 -88l-96 -40l-204 -80l-172 -64l-128 -56q-152 -48 88 -128l128 -64l116 -56l179 -112l147 -72l69 -64q45 -72 0 -120z
" />
    <glyph glyph-name="equal" unicode="=" horiz-adv-x="1128" 
d="M1023 456q24 32 0 80l-170 32l-341 24l-133 16h-243q-120 -96 -60 -152l109 -40q364 -24 767 -8zM1015 824q24 32 0 80l-170 32l-341 24l-133 16h-243q-120 -96 -60 -152l109 -40q364 -24 759 0z" />
    <glyph glyph-name="asciicircum" unicode="^" horiz-adv-x="1096" 
d="M517 1637l51 -31l36 -24l46 -46l18 -28l40 -57l46 -91l49 -71l91 -185q31 -47 -0.5 -68t-85.5 2l-100 141l-76 129l-18 23l-78 126q-5 32 -23 0l-23 -17l-36 -99l-50 -111l-68 -156l-46 -58q-50 -13 -98 22l36 107l67 165l67 160l68 145q55 49 87 22z" />
    <glyph glyph-name="grave" unicode="`" horiz-adv-x="768" 
d="M128 1064q-8 136 8 232l48 88l24 24l48 40l80 40q48 32 200 -40l24 -24q24 -72 -24 -160l-72 -88l-128 -24q-32 -32 -8 -56l32 -32l40 -8l48 -40q32 -48 8 -112l-48 -40h-64l-88 32l-80 40z" />
    <glyph glyph-name="questiondown" unicode="&#xbf;" horiz-adv-x="1152" 
d="M392 968q-24 -56 0 -104l64 -8l96 -16q40 -56 -32 -64l-88 -40l-80 -32l-88 -48l-112 -48l-80 -112q-96 -136 -40 -272l40 -80l120 -120l208 -32l184 24l160 80l120 40l80 88q64 56 0 112l-32 40l-56 8l-200 -80l-64 -8l-72 -32l-152 -16l-88 32q-88 32 -16 56l112 80
l88 40l40 48l120 32l120 120q64 168 8 280l-80 72q-144 48 -280 -40zM352 1424q-32 -112 0 -168l32 -72q104 -80 168 0l72 48q40 104 8 184l-104 96q-56 8 -120 -16z" />
    <glyph glyph-name="underscore" unicode="_" 
d="M1419 -152q35 32 0 80l-246 32l-490 24l-192 16h-351q-171 -96 -87 -152l157 -40q526 -24 1156 0z" />
    <glyph glyph-name="bar" unicode="|" horiz-adv-x="568" 
d="M334 -310l26 83l-6 170v320l6 300l24 368l7 155v490l-62 226l-31 61l-88 10l-19 -130l-19 -351l-12 -495l-12 -275l-5 -482q5 -390 67 -497q88 -74 150 130z" />
    <glyph glyph-name="bar" unicode="&#xa6;" horiz-adv-x="568" 
d="M334 -310l26 83l-6 170v320l6 300l24 368l7 155v490l-62 226l-31 61l-88 10l-19 -130l-19 -351l-12 -495l-12 -275l-5 -482q5 -390 67 -497q88 -74 150 130z" />
    <glyph glyph-name="cent" unicode="&#xa2;" horiz-adv-x="1120" 
d="M346 122l79 168l188 534l44 136l126 289q30 115 3 210q-32 86 -81 0l-170 -499l-46 -108l-95 -298l-48 -148l-52 -211v-60q26 -70 52 -13zM916 460q18 54 -9 75q-60 58 -117 25l-53 -46l-52 -4l-143 4l-54 32h-16l-71 51l-34 58l-9 104l13 116l44 91l51 50l61 25h111
l38 -13l41 -20l46 -21q58 -16 58 47l-40 40l-26 26l-109 57l-104 13l-87 -13l-54 -25l-65 -53l-47 -42l-36 -62l-22 -58l-17 -45l-6 -47v-107v-67l10 -33l10 -25l12 -33l27 -43l22 -16l47 -45l70 -21l57 -17l61 -17l83 5l148 4l70 25q87 -8 91 25z" />
    <glyph glyph-name="dieresis" unicode="&#xa8;" horiz-adv-x="904" 
d="M616 1725q61 35 95.5 1.5t37 -73t-12.5 -117.5l-34 -32l-40 -32l-49 6q-93 73 -45 205zM160 1725q61 35 95.5 1.5t37 -73t-12.5 -117.5l-34 -32l-40 -32l-49 6q-93 73 -45 205z" />
    <glyph glyph-name="glyph66" horiz-adv-x="1440" 
d="M1291 650q116 155 45 346l-125 280q-142 155 -329 250q-266 162 -498 30l-143 -81l-69 -89l-63 -147q-141 -508 53 -818q79 -139 231 -176q160 -45 328 7l205 52l160 81l134 140zM224 706q-74 154 21 506q95 172 191 215l128 51q95 35 137 0l107 -26l84 -60l117 -103
l106 -120l53 -111q55 -163 22 -266l-117 -189l-202 -154q-254 -121 -445 -69q-96 69 -192 240z" />
    <glyph glyph-name="copyright" unicode="&#xa9;" horiz-adv-x="1440" 
d="M1296 640q112 232 24 448l-104 208q-128 168 -352 272q-264 104 -472 0l-144 -88l-112 -120l-72 -136q-119 -492 64 -736q112 -144 256 -224q160 -63 333 -11l210 52l165 81l137 140zM152 736q-64 216 52 465q106 180 210 225l142 53q105 34 172 9l128 -48l104 -64
l89 -94l114 -124l59 -117q63 -169 10 -329l-104 -160l-233 -144q-280 -126 -471 -24q-136 64 -208 200zM1013 605q17 55 -9 75q-62 61 -118 27l-53 -47l-53 -4l-146 4l-53 33h-17l-72 51l-34 60l-9 106l13 119l44 93l53 50l62 26h109l40 -13l40 -20l49 -22q57 -17 57 47
l-40 41l-27 26l-109 60l-106 11l-89 -11l-53 -25l-65 -56l-49 -41l-35 -64l-22 -60l-18 -47l-7 -47v-109v-68l12 -34l9 -25l13 -34l26 -43l22 -17l49 -46l70 -22l58 -17l62 -16l84 3l148 5l72 25q87 -8 92 26z" />
    <glyph glyph-name="registered" unicode="&#xae;" horiz-adv-x="1440" 
d="M1296 640q112 232 24 448l-104 208q-128 168 -352 272q-264 104 -472 0l-144 -88l-112 -120l-72 -136q-119 -492 64 -736q112 -144 256 -224q160 -63 333 -11l210 52l165 81l137 140zM160 736q-64 216 52 465q106 180 212 255l112 40q133 17 200 -8l128 -48l104 -64
l89 -94l114 -124l59 -117q63 -169 10 -329l-104 -160l-233 -144q-280 -126 -471 -24q-136 64 -208 200zM1000 540v23v40l-46 64l-56 59l-88 68l-56 46v28l70 27l43 45l66 69q30 68 0 177l-22 41l-110 91l-122 26h-148l-153 -66l-34 -38l34 -50h38l13 10l14 -33v-150l-17 -99
q-40 -55 -10 -87l22 -27l23 -18l21 -160q57 -118 106 -23l17 36v46l-17 41l3 32l35 18l48 -36l26 -37l62 -54l65 -41l66 -68l26 -46q41 10 81 46zM563 941l-3 38v38l3 43l12 62l16 76l28 18l84 -14l76 -52l12 -33l-4 -43l-32 -66l-48 -53l-44 -19l-24 -19l-40 -4l-16 9z" />
    <glyph glyph-name="bracketleft" unicode="[" horiz-adv-x="888" 
d="M271 -439h198l230 20l36 165l-68 103l-327 11v299v312l7 306l15 238l2 426l66 11h226l58 122l-51 155l-240 7h-167l-107 -10v-93l-3 -354l-10 -485l-13 -267l-5 -468q-14 -269 6 -488z" />
    <glyph glyph-name="bracketright" unicode="]" horiz-adv-x="888" 
d="M567 -439h-198l-230 20l-36 165l68 103l327 11v299v312l-7 306l-15 238l-2 426l-66 11h-226l-58 122l51 155l240 7h167l107 -10v-93l3 -354l10 -485l13 -267l5 -468q14 -269 -6 -488z" />
    <glyph glyph-name="plus" unicode="+" horiz-adv-x="952" 
d="M836 757q20 26 0 65l-140 26l-279 19l-110 13h-200q-99 -78 -50 -123l90 -33q299 -19 659 0zM488 370l17 32l-3 66v124l3 117l17 143l4 61v192l-42 87l-21 24l-59 3l-12 -50l-14 -136l-7 -194l-9 -106l-3 -187q3 -154 45 -195q59 -29 101 51z" />
    <glyph glyph-name="plusminus" unicode="&#xb1;" horiz-adv-x="952" 
d="M836 861q20 26 0 65l-140 26l-279 19l-110 13h-200q-99 -78 -50 -123l90 -33q299 -19 659 0zM488 482l17 32l-3 66v124l3 117l17 143l4 61v192l-42 87l-21 24l-59 3l-12 -50l-14 -136l-7 -194l-9 -106l-3 -187q3 -154 45 -195q59 -29 101 51zM822 208q18 24 0 59l-125 24
l-247 18l-97 11h-177q-88 -71 -45 -112l80 -30q265 -18 584 0z" />
    <glyph glyph-name="asterisk" unicode="*" horiz-adv-x="1085" 
d="M47 1315q0 37 26 66t62 29q24 0 271 -97q-8 139 -8 192q0 39 25.5 64t63.5 25q39 0 64.5 -25t25.5 -64q0 -55 6 -169q240 36 294 36q37 0 61.5 -26.5t24.5 -64.5q0 -70 -75 -86q-70 -15 -240 -35q51 -54 119 -137q89 -110 89 -153q0 -36 -28 -62.5t-64 -26.5
q-38 0 -69 36q-61 82 -199 235q-206 -233 -279 -233q-36 0 -63.5 28t-27.5 64q0 34 32 66q64 54 186 173q-82 26 -240 87q-57 25 -57 78z" />
    <glyph glyph-name="braceleft" unicode="{" horiz-adv-x="750" 
d="M259 573q55 27 98 106q41 75 41 135q0 43 -6.5 204t-6.5 204q0 197 140 212q34 1 101 10q71 16 71 70q0 52 -58 84q-48 27 -104 27q-63 0 -132 -29q-199 -87 -199 -403l5 -199l3 -199v-28q-50 -14 -124 -83q-82 -76 -82 -128q0 -45 94.5 -112.5t94.5 -149.5q0 -27 -8 -82
t-8 -82q0 -177 83 -330q100 -184 261 -184q74 0 105 12q51 21 51 84q0 66 -51 83q-23 8 -105 8q-69 0 -118 135q-39 108 -39 192q0 33 8 99t8 99q0 47 -45 129q-38 71 -78 116z" />
    <glyph glyph-name="braceright" unicode="}" horiz-adv-x="750" 
d="M443 573q-55 27 -98 106q-41 75 -41 135q0 43 6.5 204t6.5 204q0 197 -140 212q-34 1 -101 10q-71 16 -71 70q0 52 58 84q48 27 104 27q63 0 132 -29q199 -87 199 -403l-5 -199l-3 -199v-28q50 -14 124 -83q82 -76 82 -128q0 -45 -94.5 -112.5t-94.5 -149.5q0 -27 8 -82
t8 -82q0 -177 -83 -330q-100 -184 -261 -184q-74 0 -105 12q-51 21 -51 84q0 66 51 83q23 8 105 8q69 0 118 135q39 108 39 192q0 33 -8 99t-8 99q0 47 45 129q38 71 78 116z" />
    <glyph glyph-name="asciitilde" unicode="~" horiz-adv-x="1224" 
d="M467 934q87 0 158 -71l110 -133q66 -74 137 -80q41 -3 79.5 120t100.5 123q38 0 64 -24.5t26 -62.5q1 -132 -80 -234q-82 -105 -193 -105t-203 75q-52 43 -123 139q-55 75 -76 75q-87 0 -197 -189q-29 -51 -77 -51q-36 0 -64.5 25.5t-28.5 61.5q0 19 10 42
q54 117 141 196q103 93 216 93z" />
    <glyph glyph-name="Ntilde" unicode="&#xd1;" horiz-adv-x="1440" 
d="M1176 56l32 88l16 160l8 248v288l-16 272l-32 184l-40 112q-176 120 -200 16l-16 -152l64 -256l24 -160q56 -472 -56 -384l-176 136l-64 104l-184 160l-104 120l-56 80l-80 64l-64 176q-96 144 -192 40l-32 -64l8 -304l8 -288l8 -264l32 -232q48 -216 136 -144l40 48
l16 168v440q32 120 96 8l80 -56l56 -64l104 -120l312 -272l200 -192zM427 1927q87 0 158 -58l110 -108q66 -59 137 -64q41 -3 79.5 97t100.5 100q38 0 64 -20t26 -51q1 -107 -80 -190q-82 -85 -193 -85t-203 61q-52 34 -123 113q-55 61 -76 61q-87 0 -197 -154
q-29 -41 -77 -41q-36 0 -64.5 20.5t-28.5 49.5q0 16 10 34q54 95 141 160q103 75 216 75z" />
    <glyph glyph-name="Ntilde" unicode="&#xf1;" horiz-adv-x="1440" 
d="M1176 56l32 88l16 160l8 248v288l-16 272l-32 184l-40 112q-176 120 -200 16l-16 -152l64 -256l24 -160q56 -472 -56 -384l-176 136l-64 104l-184 160l-104 120l-56 80l-80 64l-64 176q-96 144 -192 40l-32 -64l8 -304l8 -288l8 -264l32 -232q48 -216 136 -144l40 48
l16 168v440q32 120 96 8l80 -56l56 -64l104 -120l312 -272l200 -192zM427 1927q87 0 158 -58l110 -108q66 -59 137 -64q41 -3 79.5 97t100.5 100q38 0 64 -20t26 -51q1 -107 -80 -190q-82 -85 -193 -85t-203 61q-52 34 -123 113q-55 61 -76 61q-87 0 -197 -154
q-29 -41 -77 -41q-36 0 -64.5 20.5t-28.5 49.5q0 16 10 34q54 95 141 160q103 75 216 75z" />
    <glyph glyph-name="section" unicode="&#xa7;" horiz-adv-x="1244" 
d="M976 517q90 -104 90 -238q0 -179 -136 -274q-118 -82 -303 -82q-222 0 -356 94q-154 109 -154 321q0 90 86 90q57 0 80 -55l30 -105q59 -186 315 -186q108 0 178 42q87 52 87 155q0 136 -181 198l-336 112q-91 49 -136.5 129t-45.5 191q0 67 27.5 124.5t82.5 106.5
q-46 78 -46 181q0 154 129 243q113 77 269 77q226 0 371 -160q33 -37 33 -74q0 -35 -23.5 -62.5t-57.5 -27.5q-25 0 -129 79t-191 79q-75 0 -141 -36q-81 -43 -81 -117q0 -118 176 -209l282 -131q173 -107 173 -309q0 -48 -28.5 -97.5t-63.5 -58.5zM375 909q0 -108 103 -169
q64 -38 224.5 -79t213.5 -72q1 7 6.5 33t5.5 42q0 108 -196 211l-291 139q-22 -9 -44 -44.5t-22 -60.5z" />
    <glyph glyph-name="yen" unicode="&#xa5;" horiz-adv-x="1302" 
d="M575 573v36q-28 40 -91 140q-33 0 -223 20q-78 8 -78 83q0 78 84 78q56 0 119 -6q-253 434 -253 451q0 34 26.5 58.5t59.5 24.5q42 0 69 -41q83 -128 123 -207q52 -106 119 -215l123 -207q130 154 275 458q30 50 82 152q24 54 75 54q34 0 60.5 -23.5t26.5 -58.5
q0 -29 -103 -214l-130 -233l111 13q83 0 83 -83q0 -84 -83 -84q-35 0 -103 -10t-101 -11q-38 -46 -110 -144v-46q44 -2 120 -2q19 0 56.5 5.5t56.5 5.5q35 0 57.5 -25t22.5 -60q0 -66 -67 -81q-49 -11 -246 -3v-203q0 -29 4.5 -82.5t4.5 -81.5q0 -84 -82 -84q-83 0 -83 84
q0 31 -3 94.5t-3 94.5v180q-72 7 -128 8q-170 2 -171 92q-2 80 103 80q17 0 47.5 -2t41.5 -2q78 0 108 -3z" />
    <glyph glyph-name="at" unicode="@" horiz-adv-x="1907" 
d="M1241 485q-101 0 -173.5 29t-117.5 86q-51 -50 -99.5 -75.5t-95.5 -25.5q-105 0 -198 85.5t-93 187.5q0 174 138 318t312 144q40 0 66.5 -29.5t26.5 -70.5q0 -57 -94 -83q-126 -37 -178 -83q-77 -66 -77 -196q0 -27 26 -53q29 -28 72 -26q82 3 153 152q63 130 113 130
q39 0 63.5 -29.5t24.5 -71.5q0 -19 -6 -56.5t-6 -56.5q0 -61 53 -77q21 -6 90 -6q130 0 181 63q47 57 47 187q0 231 -186 377q-170 133 -406 133q-276 0 -432 -207q-141 -184 -141 -464q0 -258 166 -435q172 -184 443 -184q76 0 172 28l166 62q42 15 54 15q39 0 67.5 -30.5
t28.5 -71.5q0 -89 -202 -144q-152 -42 -285 -42t-273 51.5t-239 136.5q-292 252 -292 614q0 361 199 604q214 259 568 259q319 0 547 -190q239 -202 239 -512q0 -212 -103 -326q-109 -117 -319 -117z" />
    <glyph glyph-name="sterling" unicode="&#xa3;" horiz-adv-x="1281" 
d="M178 835l52 1q-1 26 -1 52q0 259 102 432q113 195 315 195q118 0 214 -65q116 -80 116 -217q0 -33 -19 -57.5t-47 -24.5q-37 0 -59 57q-33 85 -86 117q-46 27 -128 27q-140 0 -214 -145q-65 -125 -65 -319v-41q108 12 168 12q42 0 125.5 -6t125.5 -6q30 0 47.5 -23.5
t17.5 -60.5q0 -36 -17.5 -59.5t-47.5 -23.5q-42 0 -125.5 5t-125.5 5q-58 0 -147 -8q44 -253 44 -333q0 -117 -29 -218h19q71 2 169 -55t168 -57q123 0 162 66q13 24 26 124q10 66 63 66q66 0 66 -90q0 -50 -19 -113q-54 -222 -298 -222q-70 0 -171 56t-174 56
q-50 0 -112.5 -39.5t-72.5 -39.5q-27 0 -45.5 25t-18.5 58q0 29 35 77q47 64 66 108q37 83 37 198q0 83 -43 320q-52 -4 -108 -4q-106 0 -106 88q0 35 17.5 60.5t44.5 25.5q12 0 39 -2t40 -2z" />
    <glyph glyph-name="currency" unicode="&#xa4;" horiz-adv-x="1253" 
d="M631 585q66 0 110 60q36 50 36 98q0 83 -35.5 124t-106.5 41q-69 0 -131 -37q-69 -41 -69 -97q0 -87 57 -139q54 -50 139 -50zM473 1078q39 14 88 21t108 7q24 0 56 -11t73 -33l162 90q144 96 172 96q40 0 69.5 -32t29.5 -72q0 -50 -48 -81q-82 -54 -241 -147
q17 -36 25 -79.5t8 -93.5q0 -46 -19 -96t-57 -104q62 -48 133 -122q93 -98 93 -140q0 -40 -31.5 -70.5t-71.5 -30.5q-39 0 -72 33l-93 100q-56 58 -103 90q-25 -9 -56.5 -14t-70.5 -5q-47 0 -101 20t-115 59l-177 -206q-33 -38 -75 -38q-40 0 -71.5 30t-31.5 70q0 32 24 63
q69 73 194 230q-38 74 -38 162q0 54 18.5 102t54.5 90l-115 122q-79 89 -79 132q0 40 32 69.5t72 29.5q45 0 78 -42q70 -70 176 -199z" />
    <glyph glyph-name="germandbls" unicode="&#xdf;" horiz-adv-x="1012" 
d="M558 1379q-114 0 -179.5 -95.5t-83.5 -286.5q-21 -209 -21 -451q0 -61 4 -183t4 -184q0 -154 -9 -201q-25 -135 -118 -135q-46 0 -77.5 26t-31.5 65q0 7 1 20q22 137 22 264q0 53 5.5 159t5.5 159q0 39 -1 116.5t-1 115.5q0 347 66 517q108 285 417 285q183 0 286 -126
q91 -112 91 -280q0 -145 -231 -349q140 -85 210 -220.5t70 -320.5q0 -174 -95.5 -261t-286.5 -87q-101 0 -179 46q-90 53 -90 138q0 77 73 77q33 0 88.5 -36.5t102.5 -36.5q93 0 133 31q43 34 43 118q0 191 -87 306q-46 58 -164 136q-86 58 -86 108q0 43 70 103l131 110
q70 72 70 144q0 105 -37.5 157t-114.5 52z" />
    <glyph glyph-name="cedilla" unicode="&#xb8;" horiz-adv-x="1139" 
d="M865 -196q0 -124 -60.5 -186.5t-181.5 -62.5q-85 0 -161 32q-96 42 -96 115q0 54 68 54q36 0 81.5 -24.5t96.5 -24.5q49 1 73 24t24 68q0 60 -70 110q-56 40 -125 57q-65 15 -65 73q0 76 72 76q120 0 230 -95q114 -98 114 -216z" />
    <glyph glyph-name="uni00B9" unicode="&#xb9;" horiz-adv-x="960" 
d="M735 1158h-176l6 91q8 206 -10 458q-28 77 -76 66l-61 -42l-91 -90l-89 -21q-46 -62 -9 -107l32 -25h48l141 78l14 -12v-326q-27 -29 -32 -66h-203q-31 -74 -5 -116l47 -28l52 -17h364l48 62v95z" />
    <glyph glyph-name="uni00B2" unicode="&#xb2;" horiz-adv-x="1208" 
d="M914 1107l-21 21l-21 4h-207l109 132l35 52q67 174 25 272l-42 63l-30 39l-42 26l-34 21q-93 7 -203 0l-59 -39l-93 -64l-75 -85v-55q67 -38 160 0l46 17l46 42q81 47 161 0l34 -21q29 -42 13 -114l-55 -95l-59 -80l-60 -51l-134 -90q-22 -63 37 -106l76 -34
q127 -18 389 26q16 72 4 119z" />
    <glyph glyph-name="uni00B3" unicode="&#xb3;" horiz-adv-x="1216" 
d="M884 1139q28 108 8 199l-32 58l-24 25l-40 17l-43 4q-24 25 3 62l24 38l36 33l32 25l32 33v50l-24 21l-28 20l-28 4h-175l-75 -4h-111l-48 -16l-20 -25q-16 -58 0 -100l12 -16q44 -25 83 -5l28 13q40 4 80 -4h67q-16 -50 -51 -100l-40 -29l-36 -25q-24 -50 -8 -112
q48 -21 92 -8l59 29l72 4q83 -38 43 -133l-59 -54q-64 -50 -147 -13l-64 21l-75 42l-24 16l-36 25q-32 17 -64 -12l-15 -58l123 -108q127 -88 230 -83l115 29l76 62z" />
    <glyph glyph-name="ordmasculine" unicode="&#xba;" horiz-adv-x="1096" 
d="M791 1288q46 75 19 166l-51 134q-58 75 -134 120q-107 76 -200 14l-59 -39l-29 -43l-25 -69q-56 -244 8 -355q48 -88 104 -104q68 -39 137 -14l82 25l66 39l54 66zM427 1342q-19 45 5 147q25 50 50 63l34 15q25 9 36 0l27 -8l23 -17l30 -30l28 -35l14 -33q13 -47 5 -77
l-30 -55l-53 -45q-67 -34 -116 -20q-25 20 -50 70z" />
    <glyph glyph-name="glyph89" horiz-adv-x="1120" 
d="M508 1127l-83 64l-191 194l-57 64l-125 104q-29 44 -3 80q33 32 84 0l178 -189l47 -41l100 -113l50 -55l56 -80v-22q-29 -27 -56 -6z" />
    <glyph glyph-name="Agrave" unicode="&#xc0;" 
d="M1368 48q72 72 -24 240l-104 168l-72 144l-80 128l-40 104l-192 408l-88 144q-96 240 -176 96l-56 -224l-112 -272l-56 -184l-72 -112h-192l-64 -56q-104 -136 -8 -208l184 -16l8 -88l-56 -168v-88q48 -56 96 -44t100 28t44 112l24 112l24 96l48 88l184 -8h240h72
l96 -256l64 -120l72 -56q72 -8 136 32zM584 736l32 128l64 224l64 -8l128 -312l-64 -64h-168zM796 1519l-83 64l-191 194l-57 64l-125 104q-29 44 -3 80q33 32 84 0l178 -189l47 -41l100 -113l50 -55l56 -80v-22q-29 -27 -56 -6z" />
    <glyph glyph-name="Agrave" unicode="&#xe0;" 
d="M1368 48q72 72 -24 240l-104 168l-72 144l-80 128l-40 104l-192 408l-88 144q-96 240 -176 96l-56 -224l-112 -272l-56 -184l-72 -112h-192l-64 -56q-104 -136 -8 -208l184 -16l8 -88l-56 -168v-88q48 -56 96 -44t100 28t44 112l24 112l24 96l48 88l184 -8h240h72
l96 -256l64 -120l72 -56q72 -8 136 32zM584 736l32 128l64 224l64 -8l128 -312l-64 -64h-168zM796 1519l-83 64l-191 194l-57 64l-125 104q-29 44 -3 80q33 32 84 0l178 -189l47 -41l100 -113l50 -55l56 -80v-22q-29 -27 -56 -6z" />
    <glyph glyph-name="Egrave" unicode="&#xc8;" horiz-adv-x="1384" 
d="M232 56l-40 96l-16 272l-24 104l-16 88l-88 80q-40 88 -24 152l48 48v152l-16 248l56 80l56 32h112l128 -8h88h80l80 16l88 16l104 16l80 16h184q208 -112 16 -240l-152 -32l-152 -8l-96 -16l-144 -32h-184l-64 -32l-16 -152l40 -144l96 -16l216 24h176l64 -24
q72 -80 -8 -152l-184 -40l-176 -16l-144 -16q0 -272 56 -256l136 -16l104 -16l152 -8l168 32q128 48 232 -24q96 -80 -8 -184l-48 -48l-144 -48l-264 16l-80 32l-96 16h-104l-128 -16l-104 -24zM756 1535l-83 64l-191 194l-57 64l-125 104q-29 44 -3 80q33 32 84 0l178 -189
l47 -41l100 -113l50 -55l56 -80v-22q-29 -27 -56 -6z" />
    <glyph glyph-name="Egrave" unicode="&#xe8;" horiz-adv-x="1384" 
d="M232 56l-40 96l-16 272l-24 104l-16 88l-88 80q-40 88 -24 152l48 48v152l-16 248l56 80l56 32h112l128 -8h88h80l80 16l88 16l104 16l80 16h184q208 -112 16 -240l-152 -32l-152 -8l-96 -16l-144 -32h-184l-64 -32l-16 -152l40 -144l96 -16l216 24h176l64 -24
q72 -80 -8 -152l-184 -40l-176 -16l-144 -16q0 -272 56 -256l136 -16l104 -16l152 -8l168 32q128 48 232 -24q96 -80 -8 -184l-48 -48l-144 -48l-264 16l-80 32l-96 16h-104l-128 -16l-104 -24zM756 1535l-83 64l-191 194l-57 64l-125 104q-29 44 -3 80q33 32 84 0l178 -189
l47 -41l100 -113l50 -55l56 -80v-22q-29 -27 -56 -6z" />
    <glyph glyph-name="Eacute" unicode="&#xc9;" horiz-adv-x="1384" 
d="M232 56l-40 96l-16 272l-24 104l-16 88l-88 80q-40 88 -24 152l48 48v152l-16 248l56 80l56 32h112l128 -8h88h80l80 16l88 16l104 16l80 16h184q208 -112 16 -240l-152 -32l-152 -8l-96 -16l-144 -32h-184l-64 -32l-16 -152l40 -144l96 -16l216 24h176l64 -24
q72 -80 -8 -152l-184 -40l-176 -16l-144 -16q0 -272 56 -256l136 -16l104 -16l152 -8l168 32q128 48 232 -24q96 -80 -8 -184l-48 -48l-144 -48l-264 16l-80 32l-96 16h-104l-128 -16l-104 -24zM398 1463l83 64l191 194l57 64l125 104q29 44 3 80q-33 32 -84 0l-178 -189
l-47 -41l-100 -113l-50 -55l-56 -80v-22q29 -27 56 -6z" />
    <glyph glyph-name="Eacute" unicode="&#xe9;" horiz-adv-x="1384" 
d="M232 56l-40 96l-16 272l-24 104l-16 88l-88 80q-40 88 -24 152l48 48v152l-16 248l56 80l56 32h112l128 -8h88h80l80 16l88 16l104 16l80 16h184q208 -112 16 -240l-152 -32l-152 -8l-96 -16l-144 -32h-184l-64 -32l-16 -152l40 -144l96 -16l216 24h176l64 -24
q72 -80 -8 -152l-184 -40l-176 -16l-144 -16q0 -272 56 -256l136 -16l104 -16l152 -8l168 32q128 48 232 -24q96 -80 -8 -184l-48 -48l-144 -48l-264 16l-80 32l-96 16h-104l-128 -16l-104 -24zM398 1463l83 64l191 194l57 64l125 104q29 44 3 80q-33 32 -84 0l-178 -189
l-47 -41l-100 -113l-50 -55l-56 -80v-22q29 -27 56 -6z" />
    <glyph glyph-name="Aacute" unicode="&#xc1;" 
d="M1368 48q72 72 -24 240l-104 168l-72 144l-80 128l-40 104l-192 408l-88 144q-96 240 -176 96l-56 -224l-112 -272l-56 -184l-72 -112h-192l-64 -56q-104 -136 -8 -208l184 -16l8 -88l-56 -168v-88q48 -56 96 -44t100 28t44 112l24 112l24 96l48 88l184 -8h240h72
l96 -256l64 -120l72 -56q72 -8 136 32zM584 736l32 128l64 224l64 -8l128 -312l-64 -64h-168zM502 1511l83 64l191 194l57 64l125 104q29 44 3 80q-33 32 -84 0l-178 -189l-47 -41l-100 -113l-50 -55l-56 -80v-22q29 -27 56 -6z" />
    <glyph glyph-name="Aacute" unicode="&#xe1;" 
d="M1368 48q72 72 -24 240l-104 168l-72 144l-80 128l-40 104l-192 408l-88 144q-96 240 -176 96l-56 -224l-112 -272l-56 -184l-72 -112h-192l-64 -56q-104 -136 -8 -208l184 -16l8 -88l-56 -168v-88q48 -56 96 -44t100 28t44 112l24 112l24 96l48 88l184 -8h240h72
l96 -256l64 -120l72 -56q72 -8 136 32zM584 736l32 128l64 224l64 -8l128 -312l-64 -64h-168zM502 1511l83 64l191 194l57 64l125 104q29 44 3 80q-33 32 -84 0l-178 -189l-47 -41l-100 -113l-50 -55l-56 -80v-22q29 -27 56 -6z" />
    <glyph glyph-name="Iacute" unicode="&#xcd;" horiz-adv-x="600" 
d="M280 48l32 56l-16 112l-8 168l24 248l32 248l8 104v328l-80 152l-40 40l-112 8l-24 -88l-8 -160l-32 -408l-16 -184l-8 -416q8 -168 88 -240q112 -48 192 88zM62 1519l83 64l191 194l57 64l125 104q29 44 3 80q-33 32 -84 0l-178 -189l-47 -41l-100 -113l-50 -55l-56 -80
v-22q29 -27 56 -6z" />
    <glyph glyph-name="Iacute" unicode="&#xed;" horiz-adv-x="600" 
d="M280 48l32 56l-16 112l-8 168l24 248l32 248l8 104v328l-80 152l-40 40l-112 8l-24 -88l-8 -160l-32 -408l-16 -184l-8 -416q8 -168 88 -240q112 -48 192 88zM62 1519l83 64l191 194l57 64l125 104q29 44 3 80q-33 32 -84 0l-178 -189l-47 -41l-100 -113l-50 -55l-56 -80
v-22q29 -27 56 -6z" />
    <glyph glyph-name="Yacute" unicode="&#xdd;" horiz-adv-x="1216" 
d="M999 211l32 153l8 396v97v121v235v137l-8 105q-139 137 -204 -8l-25 -24l-2 -183l-8 -192l-39 -142l-82 -81l-188 -65l-189 57l-41 186v226l-33 129q-106 105 -163 0l-33 -105v-145l8 -196l33 -136l49 -121l82 -73l180 -48l213 8l123 40l74 81l24 -73l-16 -129l-49 -113
l-123 -73l-148 -8l-196 -16l-139 -32q-131 -81 8 -170l123 -16l155 -25l139 9l107 16l98 24l82 24l33 49q65 32 115 81zM390 1487l83 64l191 194l57 64l125 104q29 44 3 80q-33 32 -84 0l-178 -189l-47 -41l-100 -113l-50 -55l-56 -80v-22q29 -27 56 -6z" />
    <glyph glyph-name="Yacute" unicode="&#xfd;" horiz-adv-x="1216" 
d="M999 211l32 153l8 396v97v121v235v137l-8 105q-139 137 -204 -8l-25 -24l-2 -183l-8 -192l-39 -142l-82 -81l-188 -65l-189 57l-41 186v226l-33 129q-106 105 -163 0l-33 -105v-145l8 -196l33 -136l49 -121l82 -73l180 -48l213 8l123 40l74 81l24 -73l-16 -129l-49 -113
l-123 -73l-148 -8l-196 -16l-139 -32q-131 -81 8 -170l123 -16l155 -25l139 9l107 16l98 24l82 24l33 49q65 32 115 81zM390 1487l83 64l191 194l57 64l125 104q29 44 3 80q-33 32 -84 0l-178 -189l-47 -41l-100 -113l-50 -55l-56 -80v-22q29 -27 56 -6z" />
    <glyph glyph-name="Uacute" unicode="&#xda;" horiz-adv-x="1400" 
d="M1104 320l40 136l40 208l16 192l-40 296l-80 256l-48 40h-120l-32 -32l-16 -144l16 -96l24 -456l-16 -144l-32 -88l-72 -144l-104 -96l-104 -40q-72 -32 -136 0l-72 104l-32 136l-8 160l8 320l8 136l8 152l-48 184q-128 96 -176 24l-32 -64l-56 -224q-16 -392 0 -600
l40 -120l32 -120l40 -64l88 -144l144 -64q96 -40 344 40l184 64l112 80zM430 1471l83 64l191 194l57 64l125 104q29 44 3 80q-33 32 -84 0l-178 -189l-47 -41l-100 -113l-50 -55l-56 -80v-22q29 -27 56 -6z" />
    <glyph glyph-name="Uacute" unicode="&#xfa;" horiz-adv-x="1400" 
d="M1104 320l40 136l40 208l16 192l-40 296l-80 256l-48 40h-120l-32 -32l-16 -144l16 -96l24 -456l-16 -144l-32 -88l-72 -144l-104 -96l-104 -40q-72 -32 -136 0l-72 104l-32 136l-8 160l8 320l8 136l8 152l-48 184q-128 96 -176 24l-32 -64l-56 -224q-16 -392 0 -600
l40 -120l32 -120l40 -64l88 -144l144 -64q96 -40 344 40l184 64l112 80zM430 1471l83 64l191 194l57 64l125 104q29 44 3 80q-33 32 -84 0l-178 -189l-47 -41l-100 -113l-50 -55l-56 -80v-22q29 -27 56 -6z" />
    <glyph glyph-name="Oacute" unicode="&#xd3;" horiz-adv-x="1360" 
d="M1168 496q104 168 40 376l-112 304q-128 168 -296 272q-240 176 -448 32l-128 -88l-64 -96l-56 -160q-128 -552 48 -888q72 -152 208 -192q144 -48 296 8l184 56l144 88l120 152zM280 584q-56 144 16 472q72 160 144 200l96 48q72 32 104 0l80 -24l64 -56l88 -96l80 -112
l40 -104q40 -152 16 -248l-88 -176l-152 -144q-192 -112 -336 -64q-72 64 -144 224zM430 1527l83 64l191 194l57 64l125 104q29 44 3 80q-33 32 -84 0l-178 -189l-47 -41l-100 -113l-50 -55l-56 -80v-22q29 -27 56 -6z" />
    <glyph glyph-name="Oacute" unicode="&#xf3;" horiz-adv-x="1360" 
d="M1168 496q104 168 40 376l-112 304q-128 168 -296 272q-240 176 -448 32l-128 -88l-64 -96l-56 -160q-128 -552 48 -888q72 -152 208 -192q144 -48 296 8l184 56l144 88l120 152zM280 584q-56 144 16 472q72 160 144 200l96 48q72 32 104 0l80 -24l64 -56l88 -96l80 -112
l40 -104q40 -152 16 -248l-88 -176l-152 -144q-192 -112 -336 -64q-72 64 -144 224zM430 1527l83 64l191 194l57 64l125 104q29 44 3 80q-33 32 -84 0l-178 -189l-47 -41l-100 -113l-50 -55l-56 -80v-22q29 -27 56 -6z" />
    <glyph glyph-name="Ograve" unicode="&#xd2;" horiz-adv-x="1360" 
d="M1168 496q104 168 40 376l-112 304q-128 168 -296 272q-240 176 -448 32l-128 -88l-64 -96l-56 -160q-128 -552 48 -888q72 -152 208 -192q144 -48 296 8l184 56l144 88l120 152zM280 584q-56 144 16 472q72 160 144 200l96 48q72 32 104 0l80 -24l64 -56l88 -96l80 -112
l40 -104q40 -152 16 -248l-88 -176l-152 -144q-192 -112 -336 -64q-72 64 -144 224zM796 1519l-83 64l-191 194l-57 64l-125 104q-29 44 -3 80q33 32 84 0l178 -189l47 -41l100 -113l50 -55l56 -80v-22q-29 -27 -56 -6z" />
    <glyph glyph-name="Ograve" unicode="&#xf2;" horiz-adv-x="1360" 
d="M1168 496q104 168 40 376l-112 304q-128 168 -296 272q-240 176 -448 32l-128 -88l-64 -96l-56 -160q-128 -552 48 -888q72 -152 208 -192q144 -48 296 8l184 56l144 88l120 152zM280 584q-56 144 16 472q72 160 144 200l96 48q72 32 104 0l80 -24l64 -56l88 -96l80 -112
l40 -104q40 -152 16 -248l-88 -176l-152 -144q-192 -112 -336 -64q-72 64 -144 224zM796 1519l-83 64l-191 194l-57 64l-125 104q-29 44 -3 80q33 32 84 0l178 -189l47 -41l100 -113l50 -55l56 -80v-22q-29 -27 -56 -6z" />
    <glyph glyph-name="Ugrave" unicode="&#xd9;" horiz-adv-x="1400" 
d="M1104 320l40 136l40 208l16 192l-40 296l-80 256l-48 40h-120l-32 -32l-16 -144l16 -96l24 -456l-16 -144l-32 -88l-72 -144l-104 -96l-104 -40q-72 -32 -136 0l-72 104l-32 136l-8 160l8 320l8 136l8 152l-48 184q-128 96 -176 24l-32 -64l-56 -224q-16 -392 0 -600
l40 -120l32 -120l40 -64l88 -144l144 -64q96 -40 344 40l184 64l112 80zM708 1479l-83 64l-191 194l-57 64l-125 104q-29 44 -3 80q33 32 84 0l178 -189l47 -41l100 -113l50 -55l56 -80v-22q-29 -27 -56 -6z" />
    <glyph glyph-name="Ugrave" unicode="&#xf9;" horiz-adv-x="1400" 
d="M1104 320l40 136l40 208l16 192l-40 296l-80 256l-48 40h-120l-32 -32l-16 -144l16 -96l24 -456l-16 -144l-32 -88l-72 -144l-104 -96l-104 -40q-72 -32 -136 0l-72 104l-32 136l-8 160l8 320l8 136l8 152l-48 184q-128 96 -176 24l-32 -64l-56 -224q-16 -392 0 -600
l40 -120l32 -120l40 -64l88 -144l144 -64q96 -40 344 40l184 64l112 80zM708 1479l-83 64l-191 194l-57 64l-125 104q-29 44 -3 80q33 32 84 0l178 -189l47 -41l100 -113l50 -55l56 -80v-22q-29 -27 -56 -6z" />
    <glyph glyph-name="Igrave" unicode="&#xcc;" horiz-adv-x="600" 
d="M280 48l32 56l-16 112l-8 168l24 248l32 248l8 104v328l-80 152l-40 40l-112 8l-24 -88l-8 -160l-32 -408l-16 -184l-8 -416q8 -168 88 -240q112 -48 192 88zM468 1447l-83 64l-191 194l-57 64l-125 104q-29 44 -3 80q33 32 84 0l178 -189l47 -41l100 -113l50 -55l56 -80
v-22q-29 -27 -56 -6z" />
    <glyph glyph-name="Igrave" unicode="&#xec;" horiz-adv-x="600" 
d="M280 48l32 56l-16 112l-8 168l24 248l32 248l8 104v328l-80 152l-40 40l-112 8l-24 -88l-8 -160l-32 -408l-16 -184l-8 -416q8 -168 88 -240q112 -48 192 88zM468 1447l-83 64l-191 194l-57 64l-125 104q-29 44 -3 80q33 32 84 0l178 -189l47 -41l100 -113l50 -55l56 -80
v-22q-29 -27 -56 -6z" />
    <glyph glyph-name="Atilde" unicode="&#xc3;" 
d="M1368 48q72 72 -24 240l-104 168l-72 144l-80 128l-40 104l-192 408l-88 144q-96 240 -176 96l-56 -224l-112 -272l-56 -184l-72 -112h-192l-64 -56q-104 -136 -8 -208l184 -16l8 -88l-56 -168v-88q48 -56 96 -44t100 28t44 112l24 112l24 96l48 88l184 -8h240h72
l96 -256l64 -120l72 -56q72 -8 136 32zM584 736l32 128l64 224l64 -8l128 -312l-64 -64h-168zM555 1894q87 0 158 -71l110 -133q66 -74 137 -80q41 -3 79.5 120t100.5 123q38 0 64 -24.5t26 -62.5q1 -132 -80 -234q-82 -105 -193 -105t-203 75q-52 43 -123 139
q-55 75 -76 75q-87 0 -197 -189q-29 -51 -77 -51q-36 0 -64.5 25.5t-28.5 61.5q0 19 10 42q54 117 141 196q103 93 216 93z" />
    <glyph glyph-name="Atilde" unicode="&#xe3;" 
d="M1368 48q72 72 -24 240l-104 168l-72 144l-80 128l-40 104l-192 408l-88 144q-96 240 -176 96l-56 -224l-112 -272l-56 -184l-72 -112h-192l-64 -56q-104 -136 -8 -208l184 -16l8 -88l-56 -168v-88q48 -56 96 -44t100 28t44 112l24 112l24 96l48 88l184 -8h240h72
l96 -256l64 -120l72 -56q72 -8 136 32zM584 736l32 128l64 224l64 -8l128 -312l-64 -64h-168zM555 1894q87 0 158 -71l110 -133q66 -74 137 -80q41 -3 79.5 120t100.5 123q38 0 64 -24.5t26 -62.5q1 -132 -80 -234q-82 -105 -193 -105t-203 75q-52 43 -123 139
q-55 75 -76 75q-87 0 -197 -189q-29 -51 -77 -51q-36 0 -64.5 25.5t-28.5 61.5q0 19 10 42q54 117 141 196q103 93 216 93z" />
    <glyph glyph-name="Otilde" unicode="&#xd5;" horiz-adv-x="1360" 
d="M1168 496q104 168 40 376l-112 304q-128 168 -296 272q-240 176 -448 32l-128 -88l-64 -96l-56 -160q-128 -552 48 -888q72 -152 208 -192q144 -48 296 8l184 56l144 88l120 152zM280 584q-56 144 16 472q72 160 144 200l96 48q72 32 104 0l80 -24l64 -56l88 -96l80 -112
l40 -104q40 -152 16 -248l-88 -176l-152 -144q-192 -112 -336 -64q-72 64 -144 224zM475 1958q87 0 158 -71l110 -133q66 -74 137 -80q41 -3 79.5 120t100.5 123q38 0 64 -24.5t26 -62.5q1 -132 -80 -234q-82 -105 -193 -105t-203 75q-52 43 -123 139q-55 75 -76 75
q-87 0 -197 -189q-29 -51 -77 -51q-36 0 -64.5 25.5t-28.5 61.5q0 19 10 42q54 117 141 196q103 93 216 93z" />
    <glyph glyph-name="Otilde" unicode="&#xf5;" horiz-adv-x="1360" 
d="M1168 496q104 168 40 376l-112 304q-128 168 -296 272q-240 176 -448 32l-128 -88l-64 -96l-56 -160q-128 -552 48 -888q72 -152 208 -192q144 -48 296 8l184 56l144 88l120 152zM280 584q-56 144 16 472q72 160 144 200l96 48q72 32 104 0l80 -24l64 -56l88 -96l80 -112
l40 -104q40 -152 16 -248l-88 -176l-152 -144q-192 -112 -336 -64q-72 64 -144 224zM475 1958q87 0 158 -71l110 -133q66 -74 137 -80q41 -3 79.5 120t100.5 123q38 0 64 -24.5t26 -62.5q1 -132 -80 -234q-82 -105 -193 -105t-203 75q-52 43 -123 139q-55 75 -76 75
q-87 0 -197 -189q-29 -51 -77 -51q-36 0 -64.5 25.5t-28.5 61.5q0 19 10 42q54 117 141 196q103 93 216 93z" />
    <glyph glyph-name="Acircumflex" unicode="&#xc2;" 
d="M1368 56q72 72 -24 240l-104 168l-72 144l-80 128l-40 104l-192 408l-88 144q-96 240 -176 96l-56 -224l-112 -272l-56 -184l-72 -112h-192l-64 -56q-104 -136 -8 -208l184 -16l8 -88l-56 -168v-88q48 -56 96 -44t100 28t44 112l24 112l24 96l48 88l184 -8h240h72
l96 -256l64 -120l72 -56q72 -8 136 32zM584 736l32 128l64 224l64 -8l128 -312l-64 -64h-168zM637 1885l51 -31l36 -24l46 -46l18 -28l40 -57l46 -91l49 -71l91 -185q31 -47 -0.5 -68t-85.5 2l-100 141l-76 129l-18 23l-78 126q-5 32 -23 0l-23 -17l-36 -99l-50 -111
l-68 -156l-46 -58q-50 -13 -98 22l36 107l67 165l67 160l68 145q55 49 87 22z" />
    <glyph glyph-name="Acircumflex" unicode="&#xe2;" 
d="M1368 56q72 72 -24 240l-104 168l-72 144l-80 128l-40 104l-192 408l-88 144q-96 240 -176 96l-56 -224l-112 -272l-56 -184l-72 -112h-192l-64 -56q-104 -136 -8 -208l184 -16l8 -88l-56 -168v-88q48 -56 96 -44t100 28t44 112l24 112l24 96l48 88l184 -8h240h72
l96 -256l64 -120l72 -56q72 -8 136 32zM584 736l32 128l64 224l64 -8l128 -312l-64 -64h-168zM637 1885l51 -31l36 -24l46 -46l18 -28l40 -57l46 -91l49 -71l91 -185q31 -47 -0.5 -68t-85.5 2l-100 141l-76 129l-18 23l-78 126q-5 32 -23 0l-23 -17l-36 -99l-50 -111
l-68 -156l-46 -58q-50 -13 -98 22l36 107l67 165l67 160l68 145q55 49 87 22z" />
    <glyph glyph-name="Ocircumflex" unicode="&#xd4;" horiz-adv-x="1360" 
d="M1168 496q104 168 40 376l-112 304q-128 168 -296 272q-240 176 -448 32l-128 -88l-64 -96l-56 -160q-128 -552 48 -888q72 -152 208 -192q144 -48 296 8l184 56l144 88l120 152zM280 584q-56 144 16 472q72 160 144 200l96 48q72 32 104 0l80 -24l64 -56l88 -96l80 -112
l40 -104q40 -152 16 -248l-88 -176l-152 -144q-192 -112 -336 -64q-72 64 -144 224zM581 2101l51 -31l36 -24l46 -46l18 -28l40 -57l46 -91l49 -71l91 -185q31 -47 -0.5 -68t-85.5 2l-100 141l-76 129l-18 23l-78 126q-5 32 -23 0l-23 -17l-36 -99l-50 -111l-68 -156
l-46 -58q-50 -13 -98 22l36 107l67 165l67 160l68 145q55 49 87 22z" />
    <glyph glyph-name="Ocircumflex" unicode="&#xf4;" horiz-adv-x="1360" 
d="M1168 496q104 168 40 376l-112 304q-128 168 -296 272q-240 176 -448 32l-128 -88l-64 -96l-56 -160q-128 -552 48 -888q72 -152 208 -192q144 -48 296 8l184 56l144 88l120 152zM280 584q-56 144 16 472q72 160 144 200l96 48q72 32 104 0l80 -24l64 -56l88 -96l80 -112
l40 -104q40 -152 16 -248l-88 -176l-152 -144q-192 -112 -336 -64q-72 64 -144 224zM581 2101l51 -31l36 -24l46 -46l18 -28l40 -57l46 -91l49 -71l91 -185q31 -47 -0.5 -68t-85.5 2l-100 141l-76 129l-18 23l-78 126q-5 32 -23 0l-23 -17l-36 -99l-50 -111l-68 -156
l-46 -58q-50 -13 -98 22l36 107l67 165l67 160l68 145q55 49 87 22z" />
    <glyph glyph-name="Icircumflex" unicode="&#xce;" horiz-adv-x="680" 
d="M384 40l32 56l-16 112l-8 168l24 248l32 248l8 104v328l-80 152l-40 40l-112 8l-24 -88l-8 -160l-32 -408l-16 -184l-8 -416q8 -168 88 -240q112 -48 192 88zM285 1885l51 -31l36 -24l46 -46l18 -28l40 -57l46 -91l49 -71l91 -185q31 -47 -0.5 -68t-85.5 2l-100 141
l-76 129l-18 23l-78 126q-5 32 -23 0l-23 -17l-36 -99l-50 -111l-68 -156l-46 -58q-50 -13 -98 22l36 107l67 165l67 160l68 145q55 49 87 22z" />
    <glyph glyph-name="Icircumflex" unicode="&#xee;" horiz-adv-x="680" 
d="M384 40l32 56l-16 112l-8 168l24 248l32 248l8 104v328l-80 152l-40 40l-112 8l-24 -88l-8 -160l-32 -408l-16 -184l-8 -416q8 -168 88 -240q112 -48 192 88zM285 1885l51 -31l36 -24l46 -46l18 -28l40 -57l46 -91l49 -71l91 -185q31 -47 -0.5 -68t-85.5 2l-100 141
l-76 129l-18 23l-78 126q-5 32 -23 0l-23 -17l-36 -99l-50 -111l-68 -156l-46 -58q-50 -13 -98 22l36 107l67 165l67 160l68 145q55 49 87 22z" />
    <glyph glyph-name="Ucircumflex" unicode="&#xdb;" horiz-adv-x="1400" 
d="M1104 320l40 136l40 208l16 192l-40 296l-80 256l-48 40h-120l-32 -32l-16 -144l16 -96l24 -456l-16 -144l-32 -88l-72 -144l-104 -96l-104 -40q-72 -32 -136 0l-72 104l-32 136l-8 160l8 320l8 136l8 152l-48 184q-128 96 -176 24l-32 -64l-56 -224q-16 -392 0 -600
l40 -120l32 -120l40 -64l88 -144l144 -64q96 -40 344 40l184 64l112 80zM557 2133l51 -31l36 -24l46 -46l18 -28l40 -57l46 -91l49 -71l91 -185q31 -47 -0.5 -68t-85.5 2l-100 141l-76 129l-18 23l-78 126q-5 32 -23 0l-23 -17l-36 -99l-50 -111l-68 -156l-46 -58
q-50 -13 -98 22l36 107l67 165l67 160l68 145q55 49 87 22z" />
    <glyph glyph-name="Ucircumflex" unicode="&#xfb;" horiz-adv-x="1400" 
d="M1104 320l40 136l40 208l16 192l-40 296l-80 256l-48 40h-120l-32 -32l-16 -144l16 -96l24 -456l-16 -144l-32 -88l-72 -144l-104 -96l-104 -40q-72 -32 -136 0l-72 104l-32 136l-8 160l8 320l8 136l8 152l-48 184q-128 96 -176 24l-32 -64l-56 -224q-16 -392 0 -600
l40 -120l32 -120l40 -64l88 -144l144 -64q96 -40 344 40l184 64l112 80zM557 2133l51 -31l36 -24l46 -46l18 -28l40 -57l46 -91l49 -71l91 -185q31 -47 -0.5 -68t-85.5 2l-100 141l-76 129l-18 23l-78 126q-5 32 -23 0l-23 -17l-36 -99l-50 -111l-68 -156l-46 -58
q-50 -13 -98 22l36 107l67 165l67 160l68 145q55 49 87 22z" />
    <glyph glyph-name="Ecircumflex" unicode="&#xca;" horiz-adv-x="1384" 
d="M232 56l-40 96l-16 272l-24 104l-16 88l-88 80q-40 88 -24 152l48 48v152l-16 248l56 80l56 32h112l128 -8h88h80l80 16l88 16l104 16l80 16h184q208 -112 16 -240l-152 -32l-152 -8l-96 -16l-144 -32h-184l-64 -32l-16 -152l40 -144l96 -16l216 24h176l64 -24
q72 -80 -8 -152l-184 -40l-176 -16l-144 -16q0 -272 56 -256l136 -16l104 -16l152 -8l168 32q128 48 232 -24q96 -80 -8 -184l-48 -48l-144 -48l-264 16l-80 32l-96 16h-104l-128 -16l-104 -24zM557 2133l51 -31l36 -24l46 -46l18 -28l40 -57l46 -91l49 -71l91 -185
q31 -47 -0.5 -68t-85.5 2l-100 141l-76 129l-18 23l-78 126q-5 32 -23 0l-23 -17l-36 -99l-50 -111l-68 -156l-46 -58q-50 -13 -98 22l36 107l67 165l67 160l68 145q55 49 87 22z" />
    <glyph glyph-name="Ecircumflex" unicode="&#xea;" horiz-adv-x="1384" 
d="M232 56l-40 96l-16 272l-24 104l-16 88l-88 80q-40 88 -24 152l48 48v152l-16 248l56 80l56 32h112l128 -8h88h80l80 16l88 16l104 16l80 16h184q208 -112 16 -240l-152 -32l-152 -8l-96 -16l-144 -32h-184l-64 -32l-16 -152l40 -144l96 -16l216 24h176l64 -24
q72 -80 -8 -152l-184 -40l-176 -16l-144 -16q0 -272 56 -256l136 -16l104 -16l152 -8l168 32q128 48 232 -24q96 -80 -8 -184l-48 -48l-144 -48l-264 16l-80 32l-96 16h-104l-128 -16l-104 -24zM557 2133l51 -31l36 -24l46 -46l18 -28l40 -57l46 -91l49 -71l91 -185
q31 -47 -0.5 -68t-85.5 2l-100 141l-76 129l-18 23l-78 126q-5 32 -23 0l-23 -17l-36 -99l-50 -111l-68 -156l-46 -58q-50 -13 -98 22l36 107l67 165l67 160l68 145q55 49 87 22z" />
    <glyph glyph-name="Adieresis" unicode="&#xc4;" 
d="M1368 48q72 72 -24 240l-104 168l-72 144l-80 128l-40 104l-192 408l-88 144q-96 240 -176 96l-56 -224l-112 -272l-56 -184l-72 -112h-192l-64 -56q-104 -136 -8 -208l184 -16l8 -88l-56 -168v-88q48 -56 96 -44t100 28t44 112l24 112l24 96l48 88l184 -8h240h72
l96 -256l64 -120l72 -56q72 -8 136 32zM584 736l32 128l64 224l64 -8l128 -312l-64 -64h-168zM424 1869q61 35 95.5 1.5t37 -73t-12.5 -117.5l-34 -32l-40 -32l-49 6q-93 73 -45 205zM800 1877q61 35 95.5 1.5t37 -73t-12.5 -117.5l-34 -32l-40 -32l-49 6q-93 73 -45 205z
" />
    <glyph glyph-name="Adieresis" unicode="&#xe4;" 
d="M1368 48q72 72 -24 240l-104 168l-72 144l-80 128l-40 104l-192 408l-88 144q-96 240 -176 96l-56 -224l-112 -272l-56 -184l-72 -112h-192l-64 -56q-104 -136 -8 -208l184 -16l8 -88l-56 -168v-88q48 -56 96 -44t100 28t44 112l24 112l24 96l48 88l184 -8h240h72
l96 -256l64 -120l72 -56q72 -8 136 32zM584 736l32 128l64 224l64 -8l128 -312l-64 -64h-168zM424 1869q61 35 95.5 1.5t37 -73t-12.5 -117.5l-34 -32l-40 -32l-49 6q-93 73 -45 205zM800 1877q61 35 95.5 1.5t37 -73t-12.5 -117.5l-34 -32l-40 -32l-49 6q-93 73 -45 205z
" />
    <glyph glyph-name="Edieresis" unicode="&#xcb;" horiz-adv-x="1384" 
d="M232 56l-40 96l-16 272l-24 104l-16 88l-88 80q-40 88 -24 152l48 48v152l-16 248l56 80l56 32h112l128 -8h88h80l80 16l88 16l104 16l80 16h184q208 -112 16 -240l-152 -32l-152 -8l-96 -16l-144 -32h-184l-64 -32l-16 -152l40 -144l96 -16l216 24h176l64 -24
q72 -80 -8 -152l-184 -40l-176 -16l-144 -16q0 -272 56 -256l136 -16l104 -16l152 -8l168 32q128 48 232 -24q96 -80 -8 -184l-48 -48l-144 -48l-264 16l-80 32l-96 16h-104l-128 -16l-104 -24zM376 1797q61 35 95.5 1.5t37 -73t-12.5 -117.5l-34 -32l-40 -32l-49 6
q-93 73 -45 205zM744 1805q61 35 95.5 1.5t37 -73t-12.5 -117.5l-34 -32l-40 -32l-49 6q-93 73 -45 205z" />
    <glyph glyph-name="Edieresis" unicode="&#xeb;" horiz-adv-x="1384" 
d="M232 56l-40 96l-16 272l-24 104l-16 88l-88 80q-40 88 -24 152l48 48v152l-16 248l56 80l56 32h112l128 -8h88h80l80 16l88 16l104 16l80 16h184q208 -112 16 -240l-152 -32l-152 -8l-96 -16l-144 -32h-184l-64 -32l-16 -152l40 -144l96 -16l216 24h176l64 -24
q72 -80 -8 -152l-184 -40l-176 -16l-144 -16q0 -272 56 -256l136 -16l104 -16l152 -8l168 32q128 48 232 -24q96 -80 -8 -184l-48 -48l-144 -48l-264 16l-80 32l-96 16h-104l-128 -16l-104 -24zM376 1797q61 35 95.5 1.5t37 -73t-12.5 -117.5l-34 -32l-40 -32l-49 6
q-93 73 -45 205zM744 1805q61 35 95.5 1.5t37 -73t-12.5 -117.5l-34 -32l-40 -32l-49 6q-93 73 -45 205z" />
    <glyph glyph-name="Idieresis" unicode="&#xcf;" horiz-adv-x="680" 
d="M384 40l32 56l-16 112l-8 168l24 248l32 248l8 104v328l-80 152l-40 40l-112 8l-24 -88l-8 -160l-32 -408l-16 -184l-8 -416q8 -168 88 -240q112 -48 192 88zM72 1805q61 35 95.5 1.5t37 -73t-12.5 -117.5l-34 -32l-40 -32l-49 6q-93 73 -45 205zM488 1789
q61 35 95.5 1.5t37 -73t-12.5 -117.5l-34 -32l-40 -32l-49 6q-93 73 -45 205z" />
    <glyph glyph-name="Idieresis" unicode="&#xef;" horiz-adv-x="680" 
d="M384 40l32 56l-16 112l-8 168l24 248l32 248l8 104v328l-80 152l-40 40l-112 8l-24 -88l-8 -160l-32 -408l-16 -184l-8 -416q8 -168 88 -240q112 -48 192 88zM72 1805q61 35 95.5 1.5t37 -73t-12.5 -117.5l-34 -32l-40 -32l-49 6q-93 73 -45 205zM488 1789
q61 35 95.5 1.5t37 -73t-12.5 -117.5l-34 -32l-40 -32l-49 6q-93 73 -45 205z" />
    <glyph glyph-name="Odieresis" unicode="&#xd6;" horiz-adv-x="1360" 
d="M1168 496q104 168 40 376l-112 304q-128 168 -296 272q-240 176 -448 32l-128 -88l-64 -96l-56 -160q-128 -552 48 -888q72 -152 208 -192q144 -48 296 8l184 56l144 88l120 152zM280 584q-56 144 16 472q72 160 144 200l96 48q72 32 104 0l80 -24l64 -56l88 -96l80 -112
l40 -104q40 -152 16 -248l-88 -176l-152 -144q-192 -112 -336 -64q-72 64 -144 224zM808 1837q61 35 95.5 1.5t37 -73t-12.5 -117.5l-34 -32l-40 -32l-49 6q-93 73 -45 205zM376 1845q61 35 95.5 1.5t37 -73t-12.5 -117.5l-34 -32l-40 -32l-49 6q-93 73 -45 205z" />
    <glyph glyph-name="Odieresis" unicode="&#xf6;" horiz-adv-x="1360" 
d="M1168 496q104 168 40 376l-112 304q-128 168 -296 272q-240 176 -448 32l-128 -88l-64 -96l-56 -160q-128 -552 48 -888q72 -152 208 -192q144 -48 296 8l184 56l144 88l120 152zM280 584q-56 144 16 472q72 160 144 200l96 48q72 32 104 0l80 -24l64 -56l88 -96l80 -112
l40 -104q40 -152 16 -248l-88 -176l-152 -144q-192 -112 -336 -64q-72 64 -144 224zM808 1837q61 35 95.5 1.5t37 -73t-12.5 -117.5l-34 -32l-40 -32l-49 6q-93 73 -45 205zM376 1845q61 35 95.5 1.5t37 -73t-12.5 -117.5l-34 -32l-40 -32l-49 6q-93 73 -45 205z" />
    <glyph glyph-name="Udieresis" unicode="&#xdc;" horiz-adv-x="1400" 
d="M1104 320l40 136l40 208l16 192l-40 296l-80 256l-48 40h-120l-32 -32l-16 -144l16 -96l24 -456l-16 -144l-32 -88l-72 -144l-104 -96l-104 -40q-72 -32 -136 0l-72 104l-32 136l-8 160l8 320l8 136l8 152l-48 184q-128 96 -176 24l-32 -64l-56 -224q-16 -392 0 -600
l40 -120l32 -120l40 -64l88 -144l144 -64q96 -40 344 40l184 64l112 80zM768 1845q61 35 95.5 1.5t37 -73t-12.5 -117.5l-34 -32l-40 -32l-49 6q-93 73 -45 205zM376 1845q61 35 95.5 1.5t37 -73t-12.5 -117.5l-34 -32l-40 -32l-49 6q-93 73 -45 205z" />
    <glyph glyph-name="Udieresis" unicode="&#xfc;" horiz-adv-x="1400" 
d="M1104 320l40 136l40 208l16 192l-40 296l-80 256l-48 40h-120l-32 -32l-16 -144l16 -96l24 -456l-16 -144l-32 -88l-72 -144l-104 -96l-104 -40q-72 -32 -136 0l-72 104l-32 136l-8 160l8 320l8 136l8 152l-48 184q-128 96 -176 24l-32 -64l-56 -224q-16 -392 0 -600
l40 -120l32 -120l40 -64l88 -144l144 -64q96 -40 344 40l184 64l112 80zM768 1845q61 35 95.5 1.5t37 -73t-12.5 -117.5l-34 -32l-40 -32l-49 6q-93 73 -45 205zM376 1845q61 35 95.5 1.5t37 -73t-12.5 -117.5l-34 -32l-40 -32l-49 6q-93 73 -45 205z" />
    <glyph glyph-name="ydieresis" unicode="&#xff;" horiz-adv-x="1216" 
d="M999 211l32 153l8 396v97v121v235v137l-8 105q-139 137 -204 -8l-25 -24l-2 -183l-8 -192l-39 -142l-82 -81l-188 -65l-189 57l-41 186v226l-33 129q-106 105 -163 0l-33 -105v-145l8 -196l33 -136l49 -121l82 -73l180 -48l213 8l123 40l74 81l24 -73l-16 -129l-49 -113
l-123 -73l-148 -8l-196 -16l-139 -32q-131 -81 8 -170l123 -16l155 -25l139 9l107 16l98 24l82 24l33 49q65 32 115 81zM688 1821q61 35 95.5 1.5t37 -73t-12.5 -117.5l-34 -32l-40 -32l-49 6q-93 73 -45 205zM320 1821q61 35 95.5 1.5t37 -73t-12.5 -117.5l-34 -32l-40 -32
l-49 6q-93 73 -45 205z" />
    <glyph glyph-name="ydieresis" unicode="&#x178;" horiz-adv-x="1216" 
d="M999 211l32 153l8 396v97v121v235v137l-8 105q-139 137 -204 -8l-25 -24l-2 -183l-8 -192l-39 -142l-82 -81l-188 -65l-189 57l-41 186v226l-33 129q-106 105 -163 0l-33 -105v-145l8 -196l33 -136l49 -121l82 -73l180 -48l213 8l123 40l74 81l24 -73l-16 -129l-49 -113
l-123 -73l-148 -8l-196 -16l-139 -32q-131 -81 8 -170l123 -16l155 -25l139 9l107 16l98 24l82 24l33 49q65 32 115 81zM688 1821q61 35 95.5 1.5t37 -73t-12.5 -117.5l-34 -32l-40 -32l-49 6q-93 73 -45 205zM320 1821q61 35 95.5 1.5t37 -73t-12.5 -117.5l-34 -32l-40 -32
l-49 6q-93 73 -45 205z" />
    <glyph glyph-name="Scaron" unicode="&#x160;" horiz-adv-x="1168" 
d="M1023 414l-57 112l-74 90l-104 40l-58 40l-178 16l-120 16l-56 32l-52 50l-32 40l-24 90v88l56 80l56 74l98 48l42 16l178 -8l74 -40l48 -90q48 -56 114 -32q89 58 0 170l-130 146l-122 80l-82 17h-98l-178 -41l-170 -120l-58 -50l-56 -112l-24 -170l24 -162l80 -122
l90 -80l114 -40l124 -32l136 -26l114 -24l122 -88l-8 -122l-90 -48l-98 -32l-130 -16l-154 40l-122 56q-178 98 -210 16l16 -96l40 -50l24 -8l130 -56l166 -58l176 -24l194 2l122 40l82 72l48 82zM525 1559l51 31l36 24l46 46l18 28l40 57l46 91l49 71l91 185q31 47 -0.5 68
t-85.5 -2l-100 -141l-76 -129l-18 -23l-38 -81q-45 -77 -63 -45l-23 17l-36 99l-50 111l-68 156l-46 58q-50 13 -98 -22l36 -107l67 -165l67 -160l68 -145q55 -49 87 -22z" />
    <glyph glyph-name="Scaron" unicode="&#x161;" horiz-adv-x="1168" 
d="M1023 414l-57 112l-74 90l-104 40l-58 40l-178 16l-120 16l-56 32l-52 50l-32 40l-24 90v88l56 80l56 74l98 48l42 16l178 -8l74 -40l48 -90q48 -56 114 -32q89 58 0 170l-130 146l-122 80l-82 17h-98l-178 -41l-170 -120l-58 -50l-56 -112l-24 -170l24 -162l80 -122
l90 -80l114 -40l124 -32l136 -26l114 -24l122 -88l-8 -122l-90 -48l-98 -32l-130 -16l-154 40l-122 56q-178 98 -210 16l16 -96l40 -50l24 -8l130 -56l166 -58l176 -24l194 2l122 40l82 72l48 82zM525 1559l51 31l36 24l46 46l18 28l40 57l46 91l49 71l91 185q31 47 -0.5 68
t-85.5 -2l-100 -141l-76 -129l-18 -23l-38 -81q-45 -77 -63 -45l-23 17l-36 99l-50 111l-68 156l-46 58q-50 13 -98 -22l36 -107l67 -165l67 -160l68 -145q55 -49 87 -22z" />
    <glyph glyph-name="Aring" unicode="&#xc5;" 
d="M1368 48q72 72 -24 240l-104 168l-72 144l-80 128l-40 104l-192 408l-88 144q-96 240 -176 96l-56 -224l-112 -272l-56 -184l-72 -112h-192l-64 -56q-104 -136 -8 -208l184 -16l8 -88l-56 -168v-88q48 -56 96 -44t100 28t44 112l24 112l24 96l48 88l184 -8h240h72
l96 -256l64 -120l72 -56q72 -8 136 32zM584 736l32 128l64 224l64 -8l128 -312l-64 -64h-168zM927 1680q46 75 19 166l-51 134q-58 75 -134 120q-107 76 -200 14l-59 -39l-29 -43l-25 -69q-56 -244 8 -355q48 -88 104 -104q68 -39 137 -14l82 25l66 39l54 66zM563 1742
q-19 45 5 147q25 50 50 63l34 15q25 9 36 0l27 -8l23 -17l30 -30l28 -35l14 -33q13 -47 5 -77l-30 -55l-53 -45q-67 -34 -116 -20q-25 20 -50 70z" />
    <glyph glyph-name="Aring" unicode="&#xe5;" 
d="M1368 48q72 72 -24 240l-104 168l-72 144l-80 128l-40 104l-192 408l-88 144q-96 240 -176 96l-56 -224l-112 -272l-56 -184l-72 -112h-192l-64 -56q-104 -136 -8 -208l184 -16l8 -88l-56 -168v-88q48 -56 96 -44t100 28t44 112l24 112l24 96l48 88l184 -8h240h72
l96 -256l64 -120l72 -56q72 -8 136 32zM584 736l32 128l64 224l64 -8l128 -312l-64 -64h-168zM927 1680q46 75 19 166l-51 134q-58 75 -134 120q-107 76 -200 14l-59 -39l-29 -43l-25 -69q-56 -244 8 -355q48 -88 104 -104q68 -39 137 -14l82 25l66 39l54 66zM563 1742
q-19 45 5 147q25 50 50 63l34 15q25 9 36 0l27 -8l23 -17l30 -30l28 -35l14 -33q13 -47 5 -77l-30 -55l-53 -45q-67 -34 -116 -20q-25 20 -50 70z" />
    <glyph glyph-name="Ccedilla" unicode="&#xc7;" horiz-adv-x="1424" 
d="M1304 128q32 104 -16 144q-112 112 -216 48l-96 -88l-96 -8l-264 8l-96 64h-32l-128 96l-64 112l-16 200l24 224l80 176l96 96l112 48h200l72 -24l72 -40l88 -40q104 -32 104 88l-72 80l-48 48l-200 112l-192 24l-160 -24l-96 -48l-120 -104l-88 -80l-64 -120l-40 -112
l-32 -88l-16 -88v-208v-128l24 -64l16 -48l24 -64l48 -80l40 -32l88 -88l128 -40l104 -32l104 -48l168 16l264 16l128 48q160 -16 168 48zM961 -220q0 -124 -60.5 -186.5t-181.5 -62.5q-85 0 -161 32q-96 42 -96 115q0 54 68 54q36 0 81.5 -24.5t96.5 -24.5q49 1 73 24
t24 68q0 60 -70 110q-56 40 -125 57q-82 82 -42 42q-23 107 64 16q112 0 200 16q129 -118 129 -236z" />
    <glyph glyph-name="Ccedilla" unicode="&#xe7;" horiz-adv-x="1424" 
d="M1304 128q32 104 -16 144q-112 112 -216 48l-96 -88l-96 -8l-264 8l-96 64h-32l-128 96l-64 112l-16 200l24 224l80 176l96 96l112 48h200l72 -24l72 -40l88 -40q104 -32 104 88l-72 80l-48 48l-200 112l-192 24l-160 -24l-96 -48l-120 -104l-88 -80l-64 -120l-40 -112
l-32 -88l-16 -88v-208v-128l24 -64l16 -48l24 -64l48 -80l40 -32l88 -88l128 -40l104 -32l104 -48l168 16l264 16l128 48q160 -16 168 48zM961 -220q0 -124 -60.5 -186.5t-181.5 -62.5q-85 0 -161 32q-96 42 -96 115q0 54 68 54q36 0 81.5 -24.5t96.5 -24.5q49 1 73 24
t24 68q0 60 -70 110q-56 40 -125 57q-82 82 -42 42q-23 107 64 16q112 0 200 16q129 -118 129 -236z" />
    <glyph glyph-name="six" unicode="6" horiz-adv-x="1576" 
d="M1061 54l72 47l85 70q83 133 20 367l-127 140l-78 86l-170 39q-113 31 -255 -15l-148 -117l-92 -133q-95 -117 -78 94q-9 312 158 472l167 113l170 39l193 -8q63 70 22 136l-48 72l-54 34q-183 47 -386 -18l-184 -112l-144 -160l-112 -176l-48 -192q-16 -200 24 -360
l72 -160l136 -168l184 -128q325 -48 621 38zM512 346l68 85l108 92l114 62l74 7l123 -102l49 -98l-31 -92l-129 -78q-108 -37 -243 22l-66 38z" />
    <glyph glyph-name="seven" unicode="7" horiz-adv-x="1384" 
d="M664 16l32 232l88 248l112 136l120 200l120 208l88 144q24 96 -8 160l-200 80l-80 80h-896v-416q96 -128 224 0v144h552q56 -48 -24 -160l-80 -104l-160 -368l-40 -112q-56 -192 -24 -312l40 -160q64 -32 136 0z" />
    <glyph glyph-name="eight" unicode="8" horiz-adv-x="1456" 
d="M1248 328q56 112 0 256l-40 80l-56 64l-96 64q-16 64 32 168q48 72 0 208l-64 104l-64 56l-96 96l-160 88q-136 24 -232 0l-152 -40l-80 -40l-64 -88l-40 -40l-96 -120q-40 -168 8 -272l112 -104l8 -80l-48 -56l-56 -128l-8 -144l48 -152l56 -88l144 -80l176 -40
q144 -24 376 16l248 112l72 72zM264 448l88 72l112 56l160 56l144 16l136 8l120 -64l40 -88l-16 -96l-56 -80l-72 -72l-120 -32q-120 -32 -256 -8l-120 24l-112 32l-56 80zM296 1112l80 64l104 56l120 32l104 -32l152 -40l48 -72q8 -120 -112 -192l-216 -48
q-160 -40 -256 24l-64 48l-8 72z" />
    <glyph glyph-name="nine" unicode="9" horiz-adv-x="1328" 
d="M512 16l272 120l128 64l136 128l64 96q104 376 24 688l-40 104l-56 88l-56 80l-120 112q-240 64 -464 16l-160 -80l-104 -120l-64 -80l-24 -72q-48 -152 0 -240l72 -160l32 -40l160 -80q176 -48 352 0l160 112l48 48q96 88 64 -56l-56 -184l-112 -112l-120 -56l-152 -40
l-176 -40l-96 -48l-64 -80q-56 -80 32 -168q184 -40 320 0zM352 1152l40 40l88 16l80 16h200l64 -56l-16 -128l-64 -104l-80 -56q-96 -72 -184 -8l-120 64l-48 128l8 72z" />
    <glyph glyph-name="zero" unicode="0" horiz-adv-x="1440" 
d="M1256 488q32 216 -8 440l-24 64l-48 120l-128 136l-128 128l-96 96l-80 32q-160 56 -352 -32l-136 -56l-128 -120l-88 -184q-72 -256 0 -704l104 -160l128 -120l184 -80q280 -64 480 48l120 72l120 120zM328 1048l48 72l56 40l72 32q104 72 240 16l128 -96l104 -120
l64 -152l24 -160l-48 -184l-96 -120l-152 -88l-152 -32l-136 16l-80 56l-56 56l-64 136l-32 96q-40 112 -16 232l48 128z" />
  </font>
</defs>
</svg>
